<?xml version="1.0" encoding="utf-8"?>
<!-- Generator: Adobe Illustrator 26.1.0, SVG Export Plug-In . SVG Version: 6.00 Build 0)  -->
<svg version="1.1" id="レイヤー_1" xmlns="http://www.w3.org/2000/svg" xmlns:xlink="http://www.w3.org/1999/xlink" x="0px"
	 y="0px" viewBox="0 0 500 188.55" style="enable-background:new 0 0 500 188.55;" xml:space="preserve">
<style type="text/css">
	.st0{fill:none;stroke:#E05C46;stroke-linecap:round;stroke-miterlimit:10;}
	.st1{fill:#E05C46;}
	.st2{fill:#D85132;}
	.st3{fill:#EC704A;}
	.st4{fill:#F49D89;}
	.st5{fill:#FFFFFF;}
	.st6{fill:#2D2D2D;}
</style>
<g>
	<g>
		<path class="st0" d="M162.55,105.55c-34.65,7.74-56.96,10.92-56.96,10.92l-17.41,32.91"/>
		<polyline class="st0" points="165.5,105.23 111.56,111.08 95.63,142.97 		"/>
		<polyline class="st0" points="96.67,171.17 149.3,120.86 214.98,92.18 140.35,120.86 96.67,163.73 		"/>
		<path class="st0" d="M231.22,95.98c-6.27-1.29-46.6,24.88-46.6,24.88l-19.12,54.49"/>
		<polyline class="st0" points="218.85,95.93 179.23,120.86 155.83,175.35 		"/>
	</g>
	<path class="st1" d="M266.8,92.41c-0.16-0.55-0.63-0.95-1.2-1.01l-18.78-2.08c-0.53-0.06-1.04,0.19-1.33,0.63l-22.1,33.86
		c-0.38,0.57-0.28,1.34,0.22,1.8c0.27,0.25,0.61,0.37,0.95,0.37c0.3,0,0.61-0.1,0.86-0.3l40.88-31.78
		C266.76,93.55,266.95,92.96,266.8,92.41z"/>
	<path class="st1" d="M345.32,106.75c-0.01-0.61-0.51-1.11-1.13-1.12c-0.06,0-6.17-0.08-12.28-1.56c-5.37-1.3-11.86-3.96-12.26-9.28
		c-0.83-10.86,24.63-29.57,24.88-29.75c0.46-0.34,0.6-0.97,0.32-1.47l-8.56-15.44l-1.99,1.1l1.49,2.69l0.61,3.97l-0.6-0.97
		c-3.56,2.18-34.71,21.6-33.34,32.17c1.24,9.61,3.24,18.63,9,21c0.83,0.34,1.73,0.54,2.73,0.59c7.19,0.35,29.11-0.73,30.04-0.77
		C344.85,107.88,345.33,107.37,345.32,106.75z"/>
	<path class="st1" d="M425.81,106.69c-0.17-0.51-0.65-0.84-1.19-0.81c-3.94,0.21-10.9-0.11-12.8-1.86c-0.32-0.3-0.37-0.53-0.38-0.7
		c-0.1-3.45,4.31-14.53,6.01-18.51c0.24-0.55,0.02-1.2-0.5-1.49l-12.32-7.03c-0.33-0.19-0.73-0.21-1.08-0.05s-0.6,0.48-0.67,0.85
		l-0.23,1.18c-1.28,6.64-2.66,13.82-2.57,19.75c-2.29,1.34-4.14,2.15-4.85,2.04c0-0.01,0-0.03,0-0.05
		c-0.1-3.45,4.31-14.53,6.01-18.51c0.24-0.55,0.02-1.2-0.5-1.49l-12.32-7.03c-0.33-0.19-0.73-0.21-1.08-0.05
		c-0.35,0.16-0.6,0.48-0.67,0.85l-0.23,1.18c-2.08,10.81-4.44,23.06-0.3,29.01c1.31,1.88,3.18,3.03,5.57,3.43
		c1.03,0.17,2.01,0.21,2.94,0.13c2.55-0.21,4.71-1.25,6.5-2.66c0.32,0.88,0.72,1.69,1.21,2.4c1.31,1.88,3.18,3.03,5.57,3.43
		c2.75,0.45,5.22,0.51,7.39,0.33c6.18-0.5,9.82-2.86,10.03-2.99C425.79,107.76,425.98,107.2,425.81,106.69z"/>
	<path class="st2" d="M499.64,156.04c-2.68-7.77-25.89-51.45-25.89-51.45c-2.92-6.76-8.75-14.57-16.43-22.74l-14.86,12.12
		c0.9,0.19,1.38,0.3,1.38,0.3l20.7,17.77c0,0,6.93,54.01,15.85,53.78C489.32,165.59,502.32,163.81,499.64,156.04z"/>
	<g>
		<path class="st3" d="M428.81,56.2c-4.85,10.79-9.1,18.36-9.16,18.46c-0.18,0.33-0.52,0.51-0.87,0.51c-0.17,0-0.33-0.04-0.49-0.13
			c-0.48-0.27-0.65-0.88-0.38-1.36c0.06-0.1,4.39-7.81,9.27-18.74c-10.05-7.81-20.77-15.26-31.25-21.76
			c-4.63,12.49-10.19,23.57-13.27,28.64c-0.19,0.31-0.52,0.48-0.86,0.48c-0.18,0-0.36-0.05-0.52-0.15c-0.47-0.29-0.62-0.9-0.33-1.37
			c3.07-5.05,8.64-16.16,13.25-28.66c-13.79-8.43-27.07-15.14-37.73-18.72c-5.59,18.61-11.34,32.96-17.11,42.74
			c-0.19,0.32-0.52,0.49-0.86,0.49c-0.17,0-0.35-0.04-0.51-0.14c-0.48-0.28-0.63-0.89-0.35-1.37c5.7-9.64,11.38-23.86,16.93-42.33
			c-5.67-1.76-10.52-2.56-14.19-2.16c-6.94,0.75-16.99,2.78-28.37,5.41c-3.63,15.8-8.9,35.31-17.52,47.82
			c-0.19,0.28-0.51,0.43-0.82,0.43c-0.2,0-0.39-0.06-0.57-0.18c-0.46-0.31-0.57-0.94-0.26-1.39c9.12-13.25,14.64-35.93,17-46.18
			c-11.97,2.8-25.25,6.2-37.89,9.47c-8.79,32.51-20.84,44.49-21.36,44.99c-0.19,0.19-0.45,0.28-0.7,0.28c-0.26,0-0.52-0.1-0.72-0.3
			c-0.38-0.4-0.38-1.03,0.02-1.41c0.12-0.12,11.91-11.88,20.52-42.98c-21.23,5.48-40.3,10.43-47.71,11.23
			c-0.73,0.08-1.45,0.13-2.18,0.18c-0.25,10.61-2.5,25.23-14.31,36.11C194.78,84,178,88.98,155.49,88.98
			c-6.93,0-14.39-0.47-22.39-1.42c-0.55-0.06-0.94-0.56-0.88-1.11c0.07-0.55,0.55-0.94,1.11-0.88c33.4,3.94,57.23-0.42,70.84-12.96
			c11.19-10.32,13.39-24.31,13.66-34.56c-14.95,0.27-29.41-6.27-53.65-6.4c-26.48-0.14-89.49,2.67-127.6-8.94
			C3.6,12.67,0.31,11.57,0.03,11.45l76.74,52.82l-16.64-6.31l-38.35-13.9c0,0,104.28,63.5,137.92,63.26
			c33.63-0.25,75.18-3.72,88.86-6.98c25.04-5.96,81.35-32.32,99.76-27.32c11.68,3.17,83.3,18.62,94.16,20.96l14.86-12.12
			C449.42,73.44,439.53,64.64,428.81,56.2z"/>
		<path class="st4" d="M204.17,72.62c-13.6,12.54-37.43,16.9-70.84,12.96c-0.56-0.07-1.04,0.33-1.11,0.88
			c-0.06,0.55,0.33,1.05,0.88,1.11c8,0.94,15.47,1.42,22.39,1.42c22.51,0,39.29-4.98,50.03-14.89
			c11.81-10.89,14.06-25.5,14.31-36.11c-0.67,0.04-1.34,0.07-2.01,0.08C217.56,48.32,215.36,62.31,204.17,72.62z"/>
		<path class="st4" d="M249.17,70.96c0.2,0.2,0.46,0.3,0.72,0.3c0.25,0,0.5-0.09,0.7-0.28c0.52-0.5,12.57-12.48,21.36-44.99
			c-0.75,0.19-1.49,0.38-2.23,0.58c-8.61,31.1-20.4,42.86-20.52,42.98C248.8,69.94,248.79,70.57,249.17,70.96z"/>
		<path class="st4" d="M293.09,64.11c0.17,0.12,0.37,0.18,0.57,0.18c0.32,0,0.63-0.15,0.82-0.43c8.62-12.51,13.89-32.02,17.52-47.82
			c-0.72,0.17-1.44,0.33-2.17,0.5c-2.36,10.25-7.88,32.93-17,46.18C292.52,63.17,292.64,63.79,293.09,64.11z"/>
		<path class="st4" d="M337.99,56.48c0.16,0.09,0.33,0.14,0.51,0.14c0.34,0,0.67-0.18,0.86-0.49c5.78-9.77,11.52-24.13,17.11-42.74
			c-0.65-0.22-1.28-0.42-1.9-0.61c-5.55,18.47-11.23,32.69-16.93,42.33C337.35,55.58,337.51,56.2,337.99,56.48z"/>
		<path class="st4" d="M381.29,62.15c0.16,0.1,0.34,0.15,0.52,0.15c0.34,0,0.67-0.17,0.86-0.48c3.08-5.07,8.64-16.14,13.27-28.64
			c-0.58-0.36-1.16-0.71-1.74-1.07c-4.6,12.5-10.17,23.62-13.25,28.66C380.67,61.25,380.82,61.86,381.29,62.15z"/>
		<path class="st4" d="M418.29,75.04c0.16,0.09,0.32,0.13,0.49,0.13c0.35,0,0.69-0.18,0.87-0.51c0.06-0.1,4.31-7.67,9.16-18.46
			c-0.54-0.42-1.08-0.85-1.62-1.27c-4.89,10.93-9.22,18.64-9.27,18.74C417.64,74.16,417.81,74.77,418.29,75.04z"/>
	</g>
	<path class="st3" d="M0.03,11.45l-0.02-0.01C0.01,11.44-0.02,11.43,0.03,11.45z"/>
	<g>
		<circle class="st5" cx="90.87" cy="44.81" r="8.96"/>
		<circle class="st6" cx="90.83" cy="44.5" r="5.81"/>
		<circle class="st5" cx="92.81" cy="46.08" r="1.79"/>
	</g>
</g>
</svg>
