<?xml version="1.0" encoding="utf-8"?>
<!-- Generator: Adobe Illustrator 26.1.0, SVG Export Plug-In . SVG Version: 6.00 Build 0)  -->
<svg version="1.1" id="レイヤー_1" xmlns="http://www.w3.org/2000/svg" xmlns:xlink="http://www.w3.org/1999/xlink" x="0px"
	 y="0px" viewBox="0 0 500 188.55" style="enable-background:new 0 0 500 188.55;" xml:space="preserve">
<style type="text/css">
	.st0{fill:#EAEA8F;}
	.st1{fill:#F7F5BF;}
	.st2{fill:#84816B;}
	.st3{fill:#776E5A;}
	.st4{fill:#F4EDD9;}
	.st5{fill:#FFFFFF;}
	.st6{fill:#2D2D2D;}
	.st7{fill:none;stroke:#FFFFFF;stroke-width:2.4877;stroke-linecap:round;stroke-linejoin:round;stroke-miterlimit:10;}
	.st8{fill:#C6C1A7;}
</style>
<g>
	<g>
		<path class="st0" d="M373.86,113.39c0.55-0.41,1.33-0.31,1.74,0.24c0.57,0.76,1.18,1.5,1.78,2.23
			c13.65-6.94,24.82-12.44,29.21-14.09l-85.77,5.72l-107.34,53.53c9.72,4.92,24.62,5.82,39.39,4.78c-1.28-1.75-2.45-3.58-3.45-5.52
			c-0.31-0.61-0.07-1.36,0.54-1.68c0.61-0.32,1.36-0.07,1.68,0.54c1.18,2.29,2.58,4.44,4.17,6.43c3.51-0.31,6.98-0.72,10.36-1.21
			c-1.75-2.23-3.34-4.57-4.77-7.04c-0.35-0.59-0.14-1.35,0.45-1.7c0.59-0.34,1.35-0.14,1.7,0.45c1.61,2.78,3.44,5.4,5.47,7.85
			c3.47-0.55,6.82-1.17,9.95-1.83c-1.94-2.46-3.74-5.02-5.35-7.7c-0.35-0.59-0.17-1.35,0.42-1.71c0.59-0.35,1.35-0.17,1.71,0.42
			c1.77,2.93,3.76,5.72,5.93,8.38c4.84-1.11,9.05-2.3,12.3-3.44c-2.52-2.58-4.74-5.46-6.56-8.53c-0.35-0.59-0.16-1.35,0.43-1.7
			c0.59-0.35,1.35-0.16,1.7,0.43c1.91,3.21,4.29,6.2,6.98,8.82c0.25-0.1,0.51-0.21,0.74-0.31c2.13-0.94,5.91-2.79,10.82-5.27
			c-1.93-1.99-3.76-4.07-5.45-6.27c-0.42-0.55-0.31-1.33,0.23-1.74c0.54-0.42,1.33-0.31,1.74,0.23c1.78,2.33,3.72,4.54,5.78,6.62
			c3.01-1.53,6.37-3.24,9.98-5.1c-1.78-2.05-3.5-4.15-5.12-6.33c-0.41-0.55-0.29-1.33,0.26-1.74c0.56-0.41,1.33-0.29,1.74,0.26
			c1.7,2.29,3.51,4.5,5.39,6.64c2.44-1.26,4.98-2.57,7.6-3.92c-1.54-1.83-2.96-3.76-4.23-5.81c-0.36-0.58-0.18-1.35,0.4-1.71
			c0.58-0.36,1.35-0.18,1.71,0.4c1.31,2.11,2.78,4.09,4.39,5.95c2.46-1.27,4.97-2.57,7.52-3.89c-1.23-1.56-2.44-3.15-3.59-4.77
			c-0.4-0.56-0.26-1.34,0.3-1.73c0.56-0.4,1.34-0.26,1.73,0.3c1.21,1.72,2.5,3.39,3.81,5.04c2.99-1.55,6.02-3.11,9.05-4.68
			c-1.2-1.45-2.33-2.96-3.38-4.53c-0.38-0.57-0.23-1.34,0.34-1.72c0.57-0.38,1.34-0.23,1.73,0.34c1.1,1.65,2.33,3.21,3.6,4.72
			c3.08-1.59,6.16-3.18,9.19-4.74c-0.81-1.12-1.58-2.27-2.29-3.46c-0.35-0.59-0.16-1.35,0.43-1.71c0.59-0.35,1.35-0.16,1.71,0.43
			c0.74,1.24,1.56,2.43,2.41,3.58c3.43-1.77,6.8-3.49,10.04-5.14c-0.5-0.63-1.02-1.25-1.51-1.89
			C373.2,114.59,373.31,113.81,373.86,113.39z"/>
		<g>
			<path class="st1" d="M249.96,158.61c-0.61,0.31-0.85,1.06-0.54,1.68c1,1.94,2.16,3.78,3.45,5.52c0.98-0.07,1.96-0.15,2.94-0.23
				c-1.59-1.99-3-4.14-4.17-6.43C251.32,158.53,250.57,158.29,249.96,158.61z"/>
			<path class="st1" d="M261.85,155.63c-0.6,0.34-0.8,1.11-0.45,1.7c1.43,2.47,3.03,4.81,4.77,7.04c0.96-0.14,1.9-0.28,2.84-0.43
				c-2.03-2.46-3.86-5.08-5.47-7.85C263.2,155.49,262.44,155.29,261.85,155.63z"/>
			<path class="st1" d="M274.03,152.7c-0.59,0.35-0.78,1.12-0.42,1.71c1.61,2.68,3.41,5.24,5.35,7.7c0.92-0.2,1.83-0.4,2.71-0.6
				c-2.17-2.66-4.16-5.45-5.93-8.38C275.39,152.53,274.62,152.34,274.03,152.7z"/>
			<path class="st1" d="M289.55,148.27c-0.35-0.59-1.11-0.79-1.7-0.43c-0.59,0.35-0.78,1.11-0.43,1.7c1.82,3.07,4.04,5.95,6.56,8.53
				c0.94-0.33,1.79-0.65,2.56-0.97C293.83,154.46,291.45,151.48,289.55,148.27z"/>
			<path class="st1" d="M302.88,143.5c-0.55,0.42-0.65,1.2-0.23,1.74c1.69,2.2,3.52,4.28,5.45,6.27c0.74-0.37,1.52-0.77,2.31-1.17
				c-2.06-2.08-4-4.28-5.78-6.62C304.21,143.19,303.42,143.08,302.88,143.5z"/>
			<path class="st1" d="M315.52,137.18c-0.55,0.41-0.67,1.19-0.26,1.74c1.61,2.18,3.34,4.28,5.12,6.33
				c0.75-0.38,1.51-0.77,2.27-1.17c-1.89-2.15-3.7-4.36-5.39-6.64C316.85,136.88,316.08,136.77,315.52,137.18z"/>
			<path class="st1" d="M326.42,132.63c-0.58,0.36-0.76,1.13-0.4,1.71c1.27,2.05,2.69,3.98,4.23,5.81c0.75-0.39,1.51-0.78,2.27-1.17
				c-1.61-1.86-3.08-3.84-4.39-5.95C327.77,132.45,327,132.27,326.42,132.63z"/>
			<path class="st1" d="M336.75,128.59c-0.56,0.4-0.69,1.17-0.3,1.73c1.15,1.62,2.35,3.2,3.59,4.77c0.75-0.39,1.5-0.78,2.25-1.17
				c-1.31-1.65-2.59-3.32-3.81-5.04C338.09,128.33,337.31,128.19,336.75,128.59z"/>
			<path class="st1" d="M348.3,123c-0.57,0.38-0.73,1.15-0.34,1.72c1.05,1.57,2.18,3.08,3.38,4.53c0.76-0.39,1.53-0.79,2.29-1.18
				c-1.28-1.51-2.5-3.07-3.6-4.72C349.65,122.77,348.88,122.61,348.3,123z"/>
			<path class="st1" d="M360.96,118.15c-0.59,0.35-0.78,1.12-0.43,1.71c0.71,1.19,1.48,2.35,2.29,3.46
				c0.75-0.39,1.51-0.78,2.26-1.16c-0.86-1.15-1.67-2.34-2.41-3.58C362.31,117.99,361.55,117.8,360.96,118.15z"/>
			<path class="st1" d="M375.6,113.64c-0.41-0.55-1.2-0.66-1.74-0.24c-0.55,0.41-0.66,1.19-0.24,1.74c0.48,0.64,1,1.26,1.51,1.89
				c0.76-0.39,1.52-0.77,2.26-1.15C376.78,115.13,376.17,114.4,375.6,113.64z"/>
		</g>
	</g>
	<path class="st2" d="M160.75,35.47c27.45-16.45,41.3-35.06,55.71-21.1c10.92,10.57,27.24,32.5,6.2,41.93l-44.7,1.5L160.75,35.47z"
		/>
	<path class="st2" d="M323.78,62.86c10.36-8.5,27.53-22.58,36.87-11.76c7.57,8.76,8.33,14.79-3.21,15.73l-18.02,1.6L323.78,62.86z"
		/>
	<path class="st3" d="M196.8,65.03c79.88,8.51,179.92,22.72,218.74,18.23c-0.15-5.49-1.14-10.8-3.02-15.57
		c-19.53,3.86-60.75-5.29-104.25-14.94c-42.79-9.5-91.29-20.27-126.98-20.27c-76.7,0-148.3,17.2-154.91,24.51
		c-0.78,0.86-0.88,1.68-0.83,2.21c0.19,1.9,2.37,6.58,6.13,13.6C49.3,68.4,110.65,55.85,196.8,65.03z"/>
	<path class="st4" d="M196.8,65.03C110.65,55.85,49.3,68.4,31.68,72.8c2.82,5.27,6.53,11.87,10.98,19.62
		c-10.8-10.78-24.3-23.53-27.95-23.76c-3.79-0.22-7.78,3.76-9.34,5.49c-2.81,3.11-5.88,7.98-5.3,11.46
		c0.57,3.42,20.4,23.3,46.02,41.49c24.22,17.2,60.92,38.26,98.22,40.91c4.12,0.29,8.32,0.43,12.6,0.43
		c68.66,0,155.84-35.81,185.66-48.06l0.51-0.21c26.18-10.75,51.44-16.77,69.28-16.68c2.28-6.59,3.35-13.55,3.18-20.23
		C376.73,87.75,276.69,73.54,196.8,65.03z"/>
	<g>
		<circle class="st5" cx="76.13" cy="72.8" r="16.95"/>
		<circle class="st6" cx="76.13" cy="72.2" r="10.99"/>
		<circle class="st5" cx="79.52" cy="75.59" r="3.39"/>
	</g>
	<path class="st0" d="M138.68,103.6c18.29-3.59,76.48-8.85,73.43,9.79c-3.04,18.64-10.36,36.51-22.16,36.81
		c-21.03,0.54-59.45-24.8-59.45-24.8L138.68,103.6z"/>
	<path class="st7" d="M126.44,52.39c25.87,20.41,12.01,76.87-13.18,95.01"/>
	<g>
		<path class="st2" d="M444.64,102.17c0.15-0.67,0.81-1.09,1.49-0.94c16.54,3.77,33.36,6.92,50.22,9.42
			c1.25-4.84,2.13-10.21,2.7-15.17c-16.19-0.27-32.45-1.2-48.5-2.79c-0.68-0.07-1.18-0.68-1.12-1.36c0.07-0.68,0.69-1.19,1.36-1.11
			c16.05,1.6,32.34,2.51,48.52,2.78c0.19-1.94,0.33-3.8,0.43-5.49c0.28-4.93,0.32-9.27,0.17-13.11
			c-16.93,1.54-33.78,4.49-50.21,8.79c-0.11,0.03-0.21,0.04-0.32,0.04c-0.55,0-1.06-0.37-1.2-0.93c-0.17-0.66,0.22-1.34,0.89-1.52
			c16.59-4.34,33.62-7.31,50.72-8.87c-0.26-4.14-0.75-7.64-1.39-10.59c-18.23,1.21-36.32,4.39-53.87,9.49
			c-0.12,0.03-0.23,0.05-0.35,0.05c-0.54,0-1.04-0.35-1.19-0.9c-0.19-0.66,0.19-1.35,0.85-1.54c17.59-5.1,35.7-8.3,53.97-9.55
			c-2.71-9.92-7.18-12.5-9.08-13.15c-13.17-4.51-41.05,7.61-59.5,15.63c-5.62,2.44-10.48,4.56-13.37,5.5
			c-1.02,0.33-2.14,0.61-3.33,0.85c4.17,10.56,4,23.79-0.16,35.8c2.12,0.01,4.15,0.09,6.05,0.27c4.32,0.42,13.63,4.5,23.5,8.82
			c16.62,7.28,35.45,15.53,45.05,13.43c3.86-0.84,6.69-6.15,8.71-12.95c-16.82-2.5-33.6-5.64-50.1-9.41
			C444.91,103.51,444.49,102.84,444.64,102.17z"/>
		<path class="st8" d="M442.99,69.95c0.16,0.54,0.65,0.9,1.19,0.9c0.11,0,0.23-0.02,0.35-0.05c17.55-5.09,35.64-8.27,53.87-9.49
			c-0.19-0.86-0.39-1.68-0.6-2.45c-18.27,1.25-36.38,4.44-53.97,9.55C443.18,68.6,442.8,69.29,442.99,69.95z"/>
		<path class="st8" d="M448.18,82.28c0.15,0.56,0.65,0.93,1.2,0.93c0.1,0,0.21-0.01,0.32-0.04c16.43-4.29,33.28-7.24,50.21-8.79
			c-0.03-0.85-0.07-1.68-0.12-2.49c-17.1,1.55-34.12,4.53-50.72,8.87C448.41,80.94,448.01,81.62,448.18,82.28z"/>
		<path class="st8" d="M449.43,91.33c-0.07,0.68,0.43,1.29,1.12,1.36c16.05,1.6,32.31,2.53,48.5,2.79c0.1-0.84,0.19-1.68,0.27-2.49
			c-16.18-0.26-32.47-1.18-48.52-2.78C450.13,90.14,449.5,90.64,449.43,91.33z"/>
		<path class="st8" d="M446.13,101.24c-0.68-0.15-1.34,0.27-1.49,0.94c-0.15,0.67,0.27,1.34,0.94,1.49
			c16.5,3.76,33.28,6.9,50.1,9.41c0.23-0.79,0.46-1.59,0.67-2.41C479.49,108.15,462.67,105.01,446.13,101.24z"/>
	</g>
</g>
</svg>
