<?xml version="1.0" encoding="utf-8"?>
<!-- Generator: Adobe Illustrator 26.1.0, SVG Export Plug-In . SVG Version: 6.00 Build 0)  -->
<svg version="1.1" id="レイヤー_1" xmlns="http://www.w3.org/2000/svg" xmlns:xlink="http://www.w3.org/1999/xlink" x="0px"
	 y="0px" viewBox="0 0 500 188.55" style="enable-background:new 0 0 500 188.55;" xml:space="preserve">
<style type="text/css">
	.st0{fill:#756F5F;}
	.st1{fill:#A0967F;}
	.st2{fill:#635F53;}
	.st3{fill:#FFFFFF;}
</style>
<g>
	<g>
		<path class="st0" d="M163.5,166.34c3.56,6.47,8.3,9.63,12.33,11.61c1.48,0.73,4.01,1.69,7.24,2.73c-2.17-2.39-4.15-4.96-5.92-7.7
			c-0.32-0.5-0.18-1.17,0.32-1.49c0.5-0.32,1.17-0.18,1.49,0.32c2.4,3.72,5.21,7.12,8.38,10.17c4.48,1.3,9.77,2.63,15.3,3.75
			c-2.38-2.72-4.58-5.51-6.68-8.17c-0.37-0.47-0.29-1.14,0.18-1.51c0.47-0.37,1.14-0.29,1.51,0.18c2.63,3.34,5.42,6.88,8.51,10.19
			c5.07,0.93,10.23,1.64,15.05,1.95c-2.62-2.91-5.01-6.03-7.15-9.34c-0.32-0.5-0.18-1.17,0.32-1.49c0.5-0.32,1.17-0.18,1.49,0.32
			c2.47,3.83,5.3,7.39,8.43,10.66c1.64,0.05,3.23,0.05,4.75-0.02c2.67-0.12,5.72-0.6,9.06-1.37c-2.66-2.85-5.22-5.79-7.63-8.83
			c-0.37-0.47-0.29-1.14,0.18-1.51c0.47-0.37,1.14-0.29,1.51,0.18c2.62,3.31,5.42,6.5,8.34,9.58c3.57-0.93,7.42-2.15,11.48-3.6
			c-1.88-2.65-3.81-5.26-5.77-7.82c-0.36-0.47-0.27-1.15,0.2-1.51c0.47-0.36,1.15-0.27,1.51,0.2c2.1,2.73,4.15,5.53,6.16,8.36
			c3.57-1.33,7.28-2.82,11.06-4.44c-1.66-2.53-3.19-5.15-4.57-7.85c-0.27-0.53-0.06-1.18,0.47-1.45c0.53-0.27,1.18-0.06,1.45,0.47
			c1.39,2.74,2.96,5.39,4.66,7.96c3.69-1.61,7.44-3.32,11.2-5.11c-1.42-2.36-2.75-4.77-3.97-7.22c-0.26-0.53-0.05-1.18,0.49-1.44
			c0.53-0.27,1.18-0.05,1.44,0.49c1.22,2.47,2.56,4.88,3.99,7.25c2.85-1.37,5.7-2.78,8.53-4.21l-2.92-6.63
			c-0.24-0.54,0.01-1.18,0.55-1.42c0.55-0.24,1.18,0.01,1.42,0.55l2.87,6.52c3.61-1.84,7.18-3.72,10.66-5.59
			c-0.69-1.67-1.39-3.33-2.15-4.97c-0.25-0.54-0.01-1.18,0.53-1.43c0.54-0.25,1.18-0.01,1.43,0.53c0.73,1.59,1.43,3.21,2.1,4.84
			c3.13-1.7,6.17-3.38,9.1-5.04l-2.22-5.94c-0.21-0.56,0.07-1.18,0.63-1.39c0.56-0.21,1.18,0.07,1.39,0.63l2.1,5.61
			c2.65-1.51,5.2-2.99,7.62-4.42l-0.84-5.56c-0.09-0.59,0.32-1.14,0.9-1.23c0.6-0.09,1.14,0.32,1.23,0.9l0.71,4.7
			c3.21-1.92,6.16-3.72,8.77-5.37c-0.01-1.45-0.02-2.9,0-4.34c0.01-0.59,0.49-1.06,1.08-1.06c0,0,0.01,0,0.01,0
			c0.59,0.01,1.07,0.5,1.06,1.09c-0.01,0.98,0,1.96,0,2.94c4.36-2.81,7.56-5.05,9.18-6.43c7.82-6.66,9.64-12.54,9.64-12.54
			L163.5,166.34z"/>
		<path class="st1" d="M178.96,171.82c-0.32-0.5-0.99-0.64-1.49-0.32c-0.5,0.32-0.64,0.99-0.32,1.49c1.77,2.74,3.75,5.3,5.92,7.7
			c1.31,0.42,2.75,0.86,4.27,1.3C184.17,178.93,181.36,175.54,178.96,171.82z"/>
		<path class="st1" d="M196.13,176.05c-0.47,0.37-0.55,1.05-0.18,1.51c2.1,2.66,4.3,5.46,6.68,8.17c1.17,0.24,2.34,0.47,3.52,0.68
			c-3.09-3.31-5.88-6.85-8.51-10.19C197.28,175.76,196.6,175.68,196.13,176.05z"/>
		<path class="st1" d="M214.38,177.54c-0.5,0.32-0.64,0.99-0.32,1.49c2.14,3.31,4.53,6.43,7.15,9.34c1.05,0.07,2.08,0.12,3.09,0.15
			c-3.13-3.27-5.96-6.83-8.43-10.66C215.55,177.36,214.88,177.22,214.38,177.54z"/>
		<path class="st1" d="M230.65,176.79c-0.47,0.37-0.54,1.05-0.18,1.51c2.41,3.04,4.97,5.98,7.63,8.83c0.79-0.18,1.59-0.38,2.41-0.59
			c-2.92-3.08-5.72-6.27-8.34-9.58C231.8,176.5,231.12,176.42,230.65,176.79z"/>
		<path class="st1" d="M246.42,173.61c-0.47,0.36-0.56,1.04-0.2,1.51c1.96,2.56,3.89,5.17,5.77,7.82c0.69-0.25,1.39-0.5,2.09-0.76
			c-2-2.83-4.06-5.63-6.16-8.36C247.57,173.34,246.89,173.25,246.42,173.61z"/>
		<path class="st1" d="M261.05,168.44c-0.53,0.27-0.74,0.92-0.47,1.45c1.37,2.7,2.91,5.32,4.57,7.85c0.67-0.29,1.34-0.58,2.02-0.87
			c-1.7-2.57-3.27-5.22-4.66-7.96C262.23,168.38,261.58,168.17,261.05,168.44z"/>
		<path class="st1" d="M274.89,163.09c-0.53,0.26-0.75,0.91-0.49,1.44c1.22,2.46,2.55,4.87,3.97,7.22c0.65-0.31,1.3-0.62,1.96-0.93
			c-1.43-2.36-2.77-4.78-3.99-7.25C276.07,163.05,275.42,162.83,274.89,163.09z"/>
		<path class="st1" d="M286.49,158.56c-0.54,0.24-0.79,0.87-0.55,1.42l2.92,6.63c0.64-0.32,1.28-0.65,1.92-0.98l-2.87-6.52
			C287.68,158.57,287.04,158.32,286.49,158.56z"/>
		<path class="st1" d="M299.82,153.65c-0.54,0.25-0.78,0.89-0.53,1.43c0.75,1.64,1.46,3.3,2.15,4.97c0.64-0.34,1.28-0.69,1.91-1.03
			c-0.67-1.63-1.36-3.24-2.1-4.84C301,153.64,300.36,153.4,299.82,153.65z"/>
		<path class="st1" d="M310.86,146.66c-0.56,0.21-0.84,0.83-0.63,1.39l2.22,5.94c0.64-0.36,1.27-0.72,1.9-1.08l-2.1-5.61
			C312.03,146.73,311.41,146.45,310.86,146.66z"/>
		<path class="st1" d="M322.03,141.69c-0.59,0.09-0.99,0.64-0.9,1.23l0.84,5.56c0.68-0.4,1.35-0.8,2-1.19l-0.71-4.7
			C323.17,142.01,322.63,141.6,322.03,141.69z"/>
		<path class="st1" d="M333.83,136.51c-0.01,0-0.01,0-0.01,0c-0.59,0-1.07,0.47-1.08,1.06c-0.02,1.44-0.01,2.89,0,4.34
			c0.74-0.47,1.47-0.93,2.16-1.37c0-0.98-0.01-1.96,0-2.94C334.9,137.01,334.42,136.52,333.83,136.51z"/>
	</g>
	<path class="st0" d="M352.07,72.3c-1.37-1.32-4.78-3.98-9.68-7.52l2.21,8.16c0.16,0.57-0.18,1.17-0.76,1.32
		c-0.09,0.03-0.19,0.04-0.28,0.04c-0.47,0-0.91-0.32-1.04-0.8l-2.9-10.71c-2.37-1.69-5.01-3.53-7.88-5.49
		c0.18,1.68,0.38,3.35,0.62,5.01c0.09,0.59-0.32,1.14-0.91,1.22c-0.05,0.01-0.11,0.01-0.16,0.01c-0.53,0-0.99-0.39-1.06-0.92
		c-0.33-2.29-0.59-4.59-0.8-6.9c-3.42-2.32-7.11-4.78-11.01-7.33c0.32,3.58,0.45,7.17,0.34,10.75c-0.02,0.58-0.5,1.05-1.08,1.05
		c-0.01,0-0.02,0-0.03,0c-0.6-0.02-1.06-0.51-1.05-1.11c0.12-4.06-0.05-8.14-0.48-12.18c-2.32-1.5-4.7-3.02-7.13-4.56
		c-0.64,3.04-1.46,6.05-2.47,8.99c-0.15,0.45-0.57,0.73-1.02,0.73c-0.12,0-0.24-0.02-0.35-0.06c-0.56-0.19-0.86-0.81-0.67-1.37
		c1.08-3.11,1.93-6.29,2.57-9.52c-3.26-2.05-6.6-4.11-9.99-6.17c-0.62,2.56-1.41,5.08-2.39,7.55c-0.17,0.42-0.57,0.68-1,0.68
		c-0.13,0-0.27-0.02-0.39-0.08c-0.55-0.22-0.83-0.84-0.61-1.4c1.02-2.6,1.83-5.25,2.45-7.94c-2.81-1.69-5.64-3.37-8.49-5.03
		c-1.11,3.64-2.61,7.17-4.48,10.44c-0.2,0.35-0.56,0.54-0.94,0.54c-0.18,0-0.36-0.05-0.53-0.14c-0.52-0.3-0.7-0.95-0.4-1.47
		c1.88-3.28,3.36-6.82,4.44-10.48c-2.38-1.37-4.77-2.73-7.15-4.06c-3.17,4.03-6.44,8-9.81,11.82c-0.21,0.24-0.51,0.37-0.81,0.37
		c-0.25,0-0.51-0.09-0.71-0.27c-0.45-0.39-0.49-1.07-0.1-1.52c3.27-3.71,6.44-7.55,9.52-11.46c-2.95-1.63-5.88-3.21-8.79-4.73
		l-12.2,12.4c-0.21,0.21-0.49,0.32-0.77,0.32c-0.27,0-0.55-0.1-0.76-0.31c-0.42-0.42-0.43-1.1-0.01-1.52l11.73-11.93
		c-4.12-2.13-8.16-4.12-12.07-5.93c-5.74,3.75-10.93,8.25-15.46,13.43c-0.21,0.24-0.51,0.37-0.81,0.37c-0.25,0-0.5-0.09-0.71-0.27
		c-0.45-0.39-0.49-1.07-0.1-1.52c4.36-4.99,9.32-9.36,14.77-13.07c-3.43-1.55-6.75-2.95-9.92-4.16
		c-8.39,4.66-16.15,10.49-22.9,17.24c-0.21,0.21-0.49,0.32-0.76,0.32c-0.28,0-0.55-0.11-0.76-0.32c-0.42-0.42-0.42-1.1,0-1.52
		c6.46-6.46,13.83-12.1,21.78-16.7c-3.8-1.37-7.36-2.46-10.58-3.18c-1.29-0.29-2.62-0.53-3.99-0.73
		c-8.82,5.4-16.74,12.23-23.36,20.24c-0.21,0.26-0.52,0.39-0.83,0.39c-0.24,0-0.48-0.08-0.68-0.25c-0.46-0.38-0.52-1.06-0.15-1.52
		c6.19-7.5,13.51-13.99,21.62-19.27c-6.93-0.64-14.58-0.26-22.51,0.8c-7.52,5.13-14.27,11.38-19.96,18.49
		c-0.21,0.27-0.53,0.4-0.84,0.4c-0.24,0-0.47-0.08-0.67-0.24c-0.46-0.37-0.54-1.05-0.17-1.51c4.94-6.17,10.67-11.7,16.99-16.45
		c-7.35,1.2-14.86,2.93-22.2,4.94c-4.94,4.71-9.39,9.95-13.16,15.59c-0.21,0.31-0.55,0.48-0.9,0.48c-0.21,0-0.41-0.06-0.6-0.18
		c-0.49-0.33-0.63-1-0.3-1.49c3.15-4.7,6.76-9.11,10.71-13.2c-6.38,1.85-12.57,3.87-18.34,5.9c-4.68,4.83-8.97,10.04-12.8,15.57
		c-0.21,0.3-0.54,0.46-0.89,0.46c-0.21,0-0.43-0.06-0.61-0.19c-0.49-0.34-0.61-1.01-0.27-1.5c3.1-4.46,6.48-8.72,10.13-12.74
		c-14.83,5.42-26.27,10.58-29.93,12.28c-9.91,4.6-15.59,10.13-15.59,16.51l257.91,42.66C355.97,86.87,360.17,80.12,352.07,72.3z"/>
	<path class="st0" d="M116.39,155.18c6.61,8.41,19.5,28.54,25.81,27.72c6.31-0.82,12.62-19.95-9.59-25.07l-16.83-5.71L116.39,155.18
		z"/>
	<path class="st2" d="M388.96,82.64c-9.43,4.95-17.68,8.88-22.32,8.87c-11.11-0.02-89.27-63.81-168.37-63.81
		c-102.8,0-150.43,41.57-147.07,60.62c1.53,8.65,15.94,20.14,15.94,20.14s-5.79-3.64-9.39-4.92c-10.33-3.67-11.05,6.89,0.5,18.03
		c18.33,17.67,74.2,48.11,147.69,48.11s138.52-52.43,160.7-50.69c6.59,0.52,14.53,4.16,22.79,8.66
		C398.72,120.6,401.1,89.18,388.96,82.64z"/>
	<path class="st0" d="M124.19,114.08c11.08-8.38,29.62-16.93,33.51-11.54c3.89,5.39-5.18,27.67-17.67,26.95
		c-9.28-0.54-20.36-4.19-20.96-6.59S124.19,114.08,124.19,114.08z"/>
	<g>
		<circle class="st3" cx="72.42" cy="71.63" r="5.86"/>
		<circle cx="71.96" cy="70.9" r="3.72"/>
		<circle class="st3" cx="71.83" cy="72.76" r="1.13"/>
	</g>
	<g>
		<circle class="st3" cx="75.83" cy="86.87" r="5.86"/>
		<circle cx="75.37" cy="86.15" r="3.72"/>
		<circle class="st3" cx="75.24" cy="88.01" r="1.13"/>
	</g>
	<g>
		<path class="st1" d="M94.35,131.66c-0.41,0-0.8-0.23-0.98-0.63c-0.25-0.54-0.01-1.18,0.53-1.43c7.86-3.6,13.46-9.51,16.2-17.1
			c3.29-9.14,2.25-20.44-2.85-31.01c-0.26-0.54-0.03-1.18,0.5-1.44c0.54-0.26,1.18-0.03,1.44,0.5c5.35,11.09,6.42,23,2.93,32.68
			c-2.93,8.15-8.93,14.49-17.33,18.33C94.66,131.62,94.5,131.66,94.35,131.66z"/>
	</g>
	<g>
		<path class="st0" d="M413.35,100.36c-0.45,0-0.88-0.29-1.02-0.75c-0.18-0.57,0.13-1.17,0.69-1.36c11.93-3.86,24.24-6.16,36.7-6.88
			c-0.46-5.17-1.26-10.03-2.37-14.21c-13.99,2.19-27.76,6.78-40.19,13.44c-0.16,0.09-0.34,0.13-0.51,0.13
			c-0.38,0-0.76-0.21-0.95-0.57c-0.28-0.52-0.08-1.18,0.44-1.46c12.56-6.72,26.47-11.37,40.6-13.62c-1.68-5.4-3.96-9.41-6.81-11.1
			c-8.85-5.24-32.45,8.75-51.32,18.66c12.14,6.54,9.76,37.95,0.47,45.02c19.54,10.64,40.93,26.04,50.84,16.23
			c2.47-2.45,4.48-6.25,6.05-10.9c-12.3-2.63-24.45-6.14-36.23-10.49c-0.56-0.21-0.84-0.83-0.64-1.38c0.21-0.56,0.83-0.84,1.38-0.64
			c11.74,4.34,23.86,7.83,36.13,10.44c1.38-4.69,2.36-10.09,2.93-15.75c-11.69-0.52-23.42-1.37-35.01-2.56
			c-0.59-0.06-1.02-0.59-0.96-1.18c0.06-0.59,0.59-1.03,1.18-0.96c11.58,1.19,23.31,2.04,34.99,2.56
			c0.54-6.45,0.57-13.15,0.13-19.49c-12.3,0.71-24.44,2.96-36.21,6.77C413.58,100.35,413.46,100.36,413.35,100.36z"/>
		<path class="st1" d="M405.71,90.17c0.19,0.36,0.57,0.57,0.95,0.57c0.17,0,0.35-0.04,0.51-0.13c12.43-6.65,26.2-11.24,40.19-13.44
			c-0.19-0.71-0.39-1.41-0.6-2.08c-14.13,2.25-28.04,6.9-40.6,13.62C405.62,88.99,405.43,89.64,405.71,90.17z"/>
		<path class="st1" d="M413.02,98.26c-0.57,0.18-0.88,0.79-0.69,1.36c0.15,0.46,0.57,0.75,1.02,0.75c0.11,0,0.22-0.02,0.33-0.05
			c11.77-3.81,23.91-6.07,36.21-6.77c-0.05-0.73-0.11-1.44-0.17-2.16C437.27,92.1,424.95,94.4,413.02,98.26z"/>
		<path class="st1" d="M413.61,111.43c-0.06,0.59,0.37,1.12,0.96,1.18c11.58,1.19,23.32,2.04,35.01,2.56
			c0.07-0.71,0.14-1.43,0.2-2.15c-11.68-0.52-23.41-1.36-34.99-2.56C414.2,110.4,413.67,110.84,413.61,111.43z"/>
		<path class="st1" d="M409.12,121.12c-0.21,0.56,0.08,1.18,0.64,1.38c11.78,4.35,23.93,7.86,36.23,10.49
			c0.23-0.67,0.44-1.36,0.65-2.06c-12.27-2.61-24.39-6.11-36.13-10.44C409.95,120.28,409.33,120.56,409.12,121.12z"/>
	</g>
	<path class="st1" d="M133.73,29.67c0.19,0.13,0.4,0.19,0.61,0.19c0.34,0,0.68-0.16,0.89-0.46c3.84-5.53,8.13-10.73,12.8-15.57
		c-1.51,0.53-2.99,1.06-4.45,1.59c-3.64,4.03-7.03,8.28-10.13,12.74C133.12,28.66,133.24,29.33,133.73,29.67z"/>
	<path class="st1" d="M155.96,22.63c0.18,0.12,0.39,0.18,0.6,0.18c0.35,0,0.69-0.17,0.9-0.48c3.78-5.64,8.22-10.88,13.16-15.59
		c-1.42,0.39-2.83,0.79-4.24,1.19c-3.96,4.09-7.57,8.5-10.71,13.2C155.33,21.63,155.46,22.3,155.96,22.63z"/>
	<path class="st1" d="M175.82,18.25c-0.37,0.46-0.3,1.14,0.17,1.51c0.2,0.16,0.44,0.24,0.67,0.24c0.32,0,0.63-0.14,0.84-0.4
		c5.69-7.11,12.45-13.35,19.96-18.49c-1.54,0.21-3.09,0.44-4.65,0.69C186.49,6.55,180.76,12.08,175.82,18.25z"/>
	<path class="st1" d="M198.35,19.59c-0.38,0.46-0.31,1.14,0.15,1.52c0.2,0.17,0.44,0.25,0.68,0.25c0.31,0,0.62-0.13,0.83-0.39
		c6.61-8.01,14.53-14.84,23.36-20.24c-1.11-0.16-2.24-0.3-3.39-0.41C211.86,5.59,204.54,12.09,198.35,19.59z"/>
	<path class="st1" d="M216.16,22.85c0.21,0.21,0.49,0.32,0.76,0.32c0.28,0,0.55-0.11,0.76-0.32c6.75-6.75,14.51-12.57,22.9-17.24
		c-0.89-0.34-1.77-0.67-2.64-0.98c-7.95,4.6-15.32,10.24-21.78,16.7C215.74,21.75,215.74,22.43,216.16,22.85z"/>
	<path class="st1" d="M235.73,22.84c-0.39,0.45-0.35,1.13,0.1,1.52c0.2,0.18,0.46,0.27,0.71,0.27c0.3,0,0.6-0.12,0.81-0.37
		c4.53-5.18,9.72-9.68,15.46-13.43c-0.77-0.36-1.54-0.71-2.31-1.06C245.04,13.48,240.09,17.85,235.73,22.84z"/>
	<path class="st1" d="M253.16,30.21c0.21,0.21,0.48,0.31,0.76,0.31c0.28,0,0.56-0.11,0.77-0.32l12.2-12.4
		c-0.67-0.35-1.33-0.7-2-1.04l-11.73,11.93C252.73,29.11,252.74,29.8,253.16,30.21z"/>
	<path class="st1" d="M266.25,35.51c0.2,0.18,0.46,0.27,0.71,0.27c0.3,0,0.6-0.12,0.81-0.37c3.37-3.83,6.64-7.79,9.81-11.82
		c-0.64-0.35-1.27-0.71-1.91-1.06c-3.08,3.91-6.25,7.75-9.52,11.46C265.76,34.43,265.8,35.12,266.25,35.51z"/>
	<path class="st1" d="M280.68,39.59c0.17,0.1,0.35,0.14,0.53,0.14c0.37,0,0.74-0.19,0.94-0.54c1.87-3.27,3.37-6.8,4.48-10.44
		c-0.64-0.37-1.27-0.74-1.91-1.11c-1.08,3.66-2.57,7.2-4.44,10.48C279.99,38.64,280.17,39.3,280.68,39.59z"/>
	<path class="st1" d="M293.29,43.12c0.13,0.05,0.26,0.08,0.39,0.08c0.43,0,0.84-0.26,1-0.68c0.97-2.47,1.77-4.99,2.39-7.55
		c-0.65-0.39-1.3-0.78-1.95-1.18c-0.61,2.69-1.42,5.35-2.45,7.94C292.46,42.27,292.73,42.9,293.29,43.12z"/>
	<path class="st1" d="M305.16,52.01c0.12,0.04,0.23,0.06,0.35,0.06c0.45,0,0.86-0.28,1.02-0.73c1.02-2.95,1.84-5.95,2.47-8.99
		c-0.64-0.41-1.29-0.82-1.94-1.23c-0.64,3.22-1.49,6.4-2.57,9.52C304.3,51.2,304.6,51.82,305.16,52.01z"/>
	<path class="st1" d="M316.62,59.1c-0.02,0.59,0.45,1.09,1.05,1.11c0.01,0,0.02,0,0.03,0c0.58,0,1.06-0.46,1.08-1.05
		c0.11-3.58-0.03-7.18-0.34-10.75c-0.76-0.49-1.52-0.99-2.3-1.49C316.57,50.96,316.74,55.04,316.62,59.1z"/>
	<path class="st1" d="M331.31,63.55c0.05,0,0.1,0,0.16-0.01c0.59-0.09,1-0.63,0.91-1.22c-0.24-1.66-0.44-3.34-0.62-5.01
		c-0.76-0.52-1.52-1.04-2.31-1.57c0.21,2.31,0.47,4.61,0.8,6.9C330.32,63.17,330.78,63.55,331.31,63.55z"/>
	<path class="st1" d="M343.56,74.31c0.09,0,0.19-0.01,0.28-0.04c0.57-0.16,0.91-0.75,0.76-1.32l-2.21-8.16
		c-0.88-0.63-1.8-1.3-2.77-1.98l2.9,10.71C342.65,73.99,343.08,74.31,343.56,74.31z"/>
</g>
</svg>
