<?xml version="1.0" encoding="utf-8"?>
<!-- Generator: Adobe Illustrator 26.1.0, SVG Export Plug-In . SVG Version: 6.00 Build 0)  -->
<svg version="1.1" id="レイヤー_1" xmlns="http://www.w3.org/2000/svg" xmlns:xlink="http://www.w3.org/1999/xlink" x="0px"
	 y="0px" viewBox="0 0 500 188.55" style="enable-background:new 0 0 500 188.55;" xml:space="preserve">
<style type="text/css">
	.st0{fill:none;stroke:#936060;stroke-width:2;stroke-linecap:round;stroke-miterlimit:10;}
	.st1{fill:#936060;}
	.st2{fill:#DBD5D5;}
	.st3{fill:#C18181;}
	.st4{fill:#FFFFFF;}
	.st5{fill:#2D2D2D;}
	.st6{fill:none;stroke:#FFFFFF;stroke-width:2.1741;stroke-linecap:round;stroke-miterlimit:10;}
</style>
<g>
	<path class="st0" d="M60.23,133.89c13.68,15.53,44.75,21.81,99.03,26.3c54.28,4.49,80.32,24.69,80.32,24.69"/>
	<path class="st1" d="M429.35,77.5c9.8-3.94,34.73-11.51,53.84-13.4c0,0-25.25,8.5-34.57,13.14c0,0,23.82-3.37,41.77-1.38
		c0,0-33.76,5.14-37.34,7.19c0,0,27.53-2.22,46.95,2.4c0,0-28.92,4.49-46.4,4.24c0,0,34.98,5.81,40.08,6.97l-43.76,0.59
		c0,0,36.54,8.19,40.33,8.62c0,0-27.92,5.92-58.76-8.44"/>
	<g>
		<path class="st1" d="M174.44,142.63c12.28,5.59,37.2,11.31,37.2,11.31s-10.06-3.18-17.36-13.58l-14.38-2.94L174.44,142.63z"/>
		<path class="st1" d="M210.21,138.2c7.43,2.72,31.03,7.31,31.03,7.31l-13.39-9.94c0,0,52.51-2.15,75.17-5l-10.91-1.59
			c0,0,73.29-13.4,81.59-13.75l-12.67-2.22c0,0,38.2,2.67,45.99,2.53c0,0-13.34-3.1-22.52-9.66l-63.84,7.11L210.21,138.2z"/>
		<path class="st1" d="M395.41,103.66c4.33,2.65,22.72,11.24,32.68,12.32c0,0-13.39-7.82-17.12-15.43L395.41,103.66z"/>
		<path class="st1" d="M130.91,35.95c0,0,34.74-13.54,56.7-14.74l-16.96,14.09l-6.22,2.22L130.91,35.95z"/>
		<path class="st1" d="M170.16,35.97c22.87-6.13,41.8-11.15,41.8-11.15l-14.8,5.78c0,0,20.91-2.53,30.98-2.62
			c0,0,127.85,37.18,147.92,41.86L190.92,47.18L170.16,35.97z"/>
	</g>
	<path class="st2" d="M16.02,65.95C4.55,72.88-0.48,79.87,0.04,85.51l27.07,13.65c0,0-28.54-8.17-26.03-1.28
		c2.51,6.89,47.17,47.48,133.19,47.17c86.02-0.31,271.78-45.56,294.32-47.46c0.95-0.08,1.92-0.12,2.9-0.14
		c0.7-4.08,0.84-8.37,0.09-12.65c-41.24,0.27-196.47-20.85-258.44-28.73C114.08,48.56,46.12,58.01,16.02,65.95z"/>
	<path class="st3" d="M426.93,77.96c-30.1,2.54-181.92-53.1-296.94-43.39C72.42,39.43,34.83,54.59,16.02,65.95
		c30.1-7.94,98.05-17.38,157.12-9.88c61.97,7.87,217.2,29,258.44,28.73c-0.43-2.45-1.15-4.89-2.23-7.29
		C428.3,77.75,427.48,77.91,426.93,77.96z"/>
	<path class="st1" d="M76.54,96.05c27.75-5.2,91.88-2.02,91.88-2.02s-87.14,9.9-96.28,17.17L76.54,96.05z"/>
	<g>
		<circle class="st4" cx="37.27" cy="79.58" r="11.07"/>
		<circle class="st5" cx="37.27" cy="79.19" r="7.18"/>
		<circle class="st4" cx="39.49" cy="81.41" r="2.21"/>
	</g>
	<path class="st6" d="M71.48,67.75c10.13,21.84,3.65,43.46-9.13,57.53"/>
</g>
</svg>
