<?xml version="1.0" encoding="utf-8"?>
<!-- Generator: Adobe Illustrator 26.1.0, SVG Export Plug-In . SVG Version: 6.00 Build 0)  -->
<svg version="1.1" id="レイヤー_1" xmlns="http://www.w3.org/2000/svg" xmlns:xlink="http://www.w3.org/1999/xlink" x="0px"
	 y="0px" viewBox="0 0 500 188.55" style="enable-background:new 0 0 500 188.55;" xml:space="preserve">
<style type="text/css">
	.st0{fill:#EA8888;}
	.st1{fill:#EA8F8F;}
	.st2{fill:#E54E4E;}
	.st3{fill:#E22D2D;}
	.st4{fill:#FFFFFF;}
	.st5{fill:#2D2D2D;}
</style>
<g>
	<path class="st0" d="M166.92,41.11C169.66,33.9,191.12,7.93,210.3,0c0,0,15.98,31.73,35.62,37.5l-11.87,12.62L166.92,41.11z"/>
	<path class="st1" d="M241.34,156.02c3.3,6.26,16.05,15.48,25.52,17.61c0,0,52.41-49.83,62.61-56.13L241.34,156.02z"/>
	<path class="st1" d="M165.41,151.76c0.53,8.86,17.7,36.25,23.01,36.77c5.3,0.52,13.67-14.25,13.67-18.39s-22.03-15.97-22.03-15.97
		L165.41,151.76z"/>
	<path class="st2" d="M370.68,84.09c-0.7-4.51-2.29-8.61-4.43-12.27c-0.8,0.3-1.54,0.52-2.18,0.62
		C333.1,77.31,226.15,32.71,156.4,32.69c-48.89-0.01-73.13,23.16-89.94,44.05C127.08,45.25,274.21,96.43,370.68,84.09z"/>
	<path class="st2" d="M66.46,76.75c-3.44,4.28-6.58,8.46-9.54,12.33l17.92,26.35c0,0-18.36-22.38-21.6-20.26
		c-3.77,2.47-7.75,7.82-0.29,19.09c7.74,11.69,36.5,36.74,78.46,46.59c50.23,11.78,106.52,1.49,133.78-8.55
		c41.57-15.31,83.73-51.94,100.59-52.92c1-0.06,2.21,0.22,3.59,0.77c1.78-5.84,2.05-11.19,1.3-16.05
		C274.21,96.43,127.08,45.25,66.46,76.75z"/>
	<path class="st3" d="M162.87,114.19c0,0,19.7-31.73,63.25-28.22c0,0-29.72,20.56-40.99,39.19L162.87,114.19z"/>
	<g>
		<path class="st0" d="M129.88,146.67c-0.4,0-0.79-0.22-0.99-0.61c-0.27-0.54-0.05-1.21,0.49-1.48
			c12.81-6.42,21.98-17.58,25.82-31.42c4.06-14.62,2.08-31.01-5.74-47.4c-0.26-0.55-0.03-1.21,0.52-1.47
			c0.55-0.27,1.21-0.03,1.47,0.52c8.05,16.87,10.08,33.8,5.87,48.94c-4.01,14.45-13.59,26.09-26.96,32.8
			C130.22,146.63,130.05,146.67,129.88,146.67z"/>
	</g>
	<g>
		<circle class="st4" cx="105.34" cy="87.57" r="17.86"/>
		<circle class="st5" cx="105.34" cy="86.94" r="11.59"/>
		<circle class="st4" cx="108.91" cy="90.51" r="3.57"/>
	</g>
	<g>
		<path class="st3" d="M433.42,38.2C419.36,49.55,405,60.79,390.66,71.67c-0.2,0.15-0.43,0.22-0.66,0.22
			c-0.33,0-0.66-0.15-0.88-0.44c-0.37-0.49-0.27-1.18,0.21-1.55c15.68-11.89,31.39-24.21,46.7-36.64c4.1-8.6,4.96-15.65-2.8-10.87
			c-9.7,5.97-52.05,43.9-66.97,49.42c4.42,7.6,6.56,17.04,3.13,28.32c13.71,5.5,44.64,38.85,61.63,53.84
			c9.35,8.25,7.25-2.93,0.99-16.22c-14.02-11.31-28.34-22.53-42.67-33.39c-0.48-0.37-0.58-1.06-0.21-1.55
			c0.37-0.48,1.06-0.58,1.55-0.21c13.07,9.9,26.13,20.11,38.97,30.41c-0.57-1.09-1.17-2.17-1.78-3.25
			c-0.71-1.25-1.44-2.51-2.17-3.77c-2.79-4.77-5.73-9.53-8.44-13.82c-0.42-0.67-0.84-1.32-1.24-1.96l-24.41-14.79
			c-0.52-0.32-0.69-0.99-0.37-1.52c0.32-0.52,1-0.69,1.52-0.37l20.55,12.45c-3.3-5.09-5.76-8.74-6.32-9.62
			c-2.67-4.16-5.38-8.86,1.19-18.41c0.83-1.21,3.6-5.5,6.98-10.8l-22.4,13.57c-0.18,0.11-0.38,0.16-0.57,0.16
			c-0.37,0-0.74-0.19-0.95-0.53c-0.32-0.52-0.15-1.2,0.37-1.52l26.23-15.89c5.98-9.38,12.75-20.08,14.4-22.73
			C432.62,39.55,433.03,38.88,433.42,38.2z"/>
		<path class="st2" d="M389.11,71.45c0.22,0.29,0.55,0.44,0.88,0.44c0.23,0,0.47-0.07,0.66-0.22c14.35-10.87,28.7-22.12,42.76-33.46
			c0.96-1.66,1.84-3.32,2.61-4.93c-15.31,12.43-31.02,24.75-46.7,36.64C388.84,70.27,388.75,70.97,389.11,71.45z"/>
		<path class="st2" d="M391.2,80.36c0.21,0.34,0.57,0.53,0.95,0.53c0.2,0,0.39-0.05,0.57-0.16l22.4-13.57
			c0.86-1.35,1.76-2.76,2.68-4.21l-26.23,15.89C391.06,79.16,390.89,79.84,391.2,80.36z"/>
		<path class="st2" d="M389.11,102.82c-0.37,0.49-0.27,1.18,0.21,1.55c14.32,10.86,28.64,22.07,42.67,33.39
			c-0.74-1.56-1.53-3.15-2.36-4.74c-12.84-10.3-25.9-20.51-38.97-30.41C390.17,102.24,389.48,102.34,389.11,102.82z"/>
		<path class="st2" d="M391.2,93.92c-0.32,0.52-0.15,1.2,0.37,1.52l24.41,14.79c-0.4-0.63-0.8-1.25-1.19-1.86
			c-0.53-0.82-1.04-1.61-1.53-2.37l-20.55-12.45C392.2,93.23,391.52,93.39,391.2,93.92z"/>
	</g>
</g>
</svg>
