<?xml version="1.0" encoding="utf-8"?>
<!-- Generator: Adobe Illustrator 26.1.0, SVG Export Plug-In . SVG Version: 6.00 Build 0)  -->
<svg version="1.1" id="レイヤー_1" xmlns="http://www.w3.org/2000/svg" xmlns:xlink="http://www.w3.org/1999/xlink" x="0px"
	 y="0px" viewBox="0 0 500 188.6" style="enable-background:new 0 0 500 188.6;" xml:space="preserve">
<style type="text/css">
	.st0{fill:#7A7874;}
	.st1{fill:#A09D98;}
	.st2{fill:#9FB2C1;}
	.st3{fill:#B2AC9E;}
	.st4{fill:none;}
	.st5{fill:#DCE1E5;}
	.st6{fill:#82A1C4;}
	.st7{fill:#FFFFFF;}
	.st8{fill:#2D2D2D;}
</style>
<g>
	<g>
		<path class="st0" d="M304.3,188.3c0.2,0.1,0.4,0.2,0.6,0.2c0.1,0,0.2,0,0.3-0.1c17.9-7.1,31.9-32.1,31.9-34.7
			c0-0.3-0.2-0.6-0.6-0.8l-12.5-4.2c-0.3-0.1-0.6,0-0.8,0.1l-10.1,6.6c-0.2,0.1-0.3,0.4-0.4,0.6c-0.9,13.5-8.7,31.1-8.8,31.3
			C304,187.8,304,188.1,304.3,188.3z"/>
		<path class="st0" d="M192.5,133.9c14.1,6.9,7.8,26.1,7.7,26.3c0,0.1,0,0.3,0.1,0.4c0,0.1,0.1,0.1,0.2,0.1c0.2,0.2,0.4,0.3,0.7,0.3
			c0.1,0,0.1,0,0.2,0c14.8-3.1,23-12,23.4-12.4c0.2-0.2,0.3-0.6,0.1-0.9l-2.4-4.1c-0.1-0.2-0.4-0.4-0.7-0.4c0,0,0,0,0,0l-4.1-7.2
			c-0.1-0.1-0.2-0.2-0.3-0.2l-24.5-2.6c-0.2,0-0.4,0.1-0.5,0.3S192.3,133.8,192.5,133.9z"/>
		<path class="st1" d="M219.6,54.9l-0.5,5.1l-39.9,23.4l-4.4-0.6c6.6-8.4,7.3-17.7,7.3-23.7c0,0,16.9-3.1,16.9-16L219.6,54.9z"/>
		<g>
			<path class="st0" d="M195.5,41.7c0.2,0.1,18.3,11.9,21.3,15.9c0.1,0.1,0.2,0.2,0.4,0.3l2.8,0.8c0.1,0,0.2,0,0.3,0
				c0.2,0,0.5-0.1,0.6-0.3l3.8-4c0.2-0.2,0.2-0.4,0.2-0.6s-0.2-0.4-0.4-0.6c-0.7-0.4-17.4-10.9-28.4-13c-0.4-0.1-0.8,0.1-1,0.5
				C195,41.1,195.1,41.5,195.5,41.7z"/>
			<path class="st0" d="M177,58c4.1,2.8,15.1,10.5,16.6,12.7c0.2,0.2,0.4,0.4,0.7,0.4c0,0,0,0,0,0l6.1-0.3c0.5,0,0.8-0.4,0.8-0.8
				v-3.4c0-0.3-0.2-0.5-0.4-0.7c-0.6-0.3-15.2-8.3-23.2-9.3c-0.4,0-0.8,0.2-0.9,0.5C176.5,57.4,176.6,57.7,177,58z"/>
		</g>
		<path class="st1" d="M246,45.5l52-3.7l31.6-1.7l-7.2-19.4L303.1,3.5c-3.1,7.3-13,13.5-23.4,14.8c-1.3,4.5-11,13.2-20.9,14
			C257.3,35.1,252,42.3,246,45.5z"/>
		<g>
			<path class="st0" d="M300.4,0.8c-0.2,0.3-0.2,0.7,0,1c0.2,0.2,21.6,23.7,25.6,36.2c0.1,0.1,0.1,0.2,0.2,0.3l2.7,2.3
				c0.2,0.1,0.4,0.2,0.6,0.2c0.1,0,0.1,0,0.2,0l6.7-1.4c0.2-0.1,0.5-0.2,0.6-0.4c0.1-0.2,0.1-0.5,0-0.7
				c-6.2-11.2-20.7-31.7-35.6-37.8C301.1,0.4,300.7,0.5,300.4,0.8z"/>
			<path class="st0" d="M276.3,15.8c-0.3,0.3-0.3,0.7,0,1c0.1,0.1,11.5,14.1,13.9,20.9c0.1,0.3,0.4,0.5,0.7,0.5l7.3,0.9
				c0,0,0.1,0,0.1,0c0.2,0,0.4-0.1,0.6-0.2c0.2-0.1,0.3-0.4,0.3-0.6v-1.8c0-0.1,0-0.3-0.1-0.4c-0.4-0.6-10.7-14.6-21.5-20.5
				C277.1,15.4,276.6,15.5,276.3,15.8z"/>
			<path class="st0" d="M255.9,30.8c0.1,0.1,5.6,7.9,6.8,10.6c0.1,0.1,0.2,0.2,0.3,0.3l2.2,1.5c0.2,0.1,0.3,0.2,0.5,0.2
				c0.2,0,0.4-0.1,0.6-0.2l2.9-2.5c0.2-0.2,0.3-0.4,0.3-0.6c0-0.2-0.1-0.4-0.2-0.6c-0.3-0.3-8.2-7.7-12.1-9.8
				c-0.3-0.2-0.8-0.1-1,0.1S255.7,30.5,255.9,30.8z"/>
		</g>
		<path class="st2" d="M426.3,109.4c0,0,2.4-1.1,5.6-3.3C428.7,107.8,426.3,109.4,426.3,109.4z"/>
		<path class="st0" d="M57.2,149.5c-3.4,4.3-3.9,7.2,0.5,7.2c45.7,0.3,67.6-31.9,87.2-37.4c-7.2-9.7-6.1-19.2-0.5-26.1
			c-18.1-6.2-41.8-37.2-86.7-37c-4.4,0-3.9,2.9-0.5,7.3c11.1,0.8,33.5,7.8,55.3,25c0.4,0.3,0.4,0.8,0.1,1.1
			c-0.2,0.2-0.4,0.3-0.6,0.3c-0.2,0-0.4-0.1-0.5-0.2C89.1,72.2,68.2,66.5,58.7,65.4c3.9,4.5,10.1,10.1,16.9,15.7
			c15.6,2.6,30.7,13.2,31.4,13.7c0.4,0.3,0.5,0.8,0.2,1.1c-0.2,0.2-0.4,0.3-0.7,0.3c-0.2,0-0.4-0.1-0.5-0.2
			c-0.1-0.1-13.5-9.5-27.7-12.8c13,10.5,27.5,20.7,32.9,23.3c-5.4,2.6-19.9,12.9-33,23.4c14.2-3.2,27.6-12.7,27.8-12.8
			c0.4-0.3,0.9-0.2,1.2,0.2c0.3,0.3,0.2,0.8-0.2,1.1c-0.6,0.5-15.8,11.2-31.4,13.7c-6.9,5.7-13,11.3-16.9,15.7
			c9.4-1.2,30.4-6.8,52.8-24.5c0.4-0.3,0.9-0.2,1.2,0.1c0.3,0.3,0.3,0.8-0.1,1.1C90.7,141.8,68.3,148.8,57.2,149.5z"/>
		<g>
			<path class="st3" d="M112.6,88.6c-21.8-17.2-44.2-24.2-55.3-25c0.4,0.6,0.9,1.1,1.4,1.8c9.5,1.2,30.4,6.8,52.7,24.4
				c0.2,0.1,0.4,0.2,0.5,0.2c0.2,0,0.5-0.1,0.6-0.3C113,89.4,112.9,88.9,112.6,88.6z"/>
			<path class="st3" d="M107,94.8c-0.7-0.5-15.7-11.1-31.4-13.7c0.9,0.7,1.7,1.4,2.6,2.1c14.2,3.3,27.6,12.7,27.7,12.8
				c0.2,0.1,0.3,0.2,0.5,0.2c0.3,0,0.5-0.1,0.7-0.3C107.4,95.5,107.3,95,107,94.8z"/>
			<path class="st3" d="M111.4,123.3c-22.4,17.6-43.3,23.3-52.8,24.5c-0.5,0.6-1,1.2-1.4,1.8c11.1-0.8,33.5-7.8,55.3-25
				c0.4-0.3,0.4-0.8,0.1-1.1C112.3,123.1,111.8,123.1,111.4,123.3z"/>
			<path class="st3" d="M105.9,117.1c-0.1,0.1-13.5,9.6-27.8,12.8c-0.9,0.7-1.7,1.4-2.6,2.1c15.6-2.5,30.8-13.2,31.4-13.7
				c0.4-0.3,0.5-0.8,0.2-1.1C106.8,116.9,106.3,116.9,105.9,117.1z"/>
		</g>
		<path class="st4" d="M426.3,109.4c0,0,2.4-1.1,5.6-3.3C428.7,107.8,426.3,109.4,426.3,109.4z"/>
		<path class="st5" d="M163.5,105.4c-9.9,3.1-17.8,3.9-23.2,3.9c0.6,3.3,2.1,6.7,4.7,10.2c1.8-0.5,3.6-0.8,5.4-0.8
			c32.9,0,68.5,44.4,152.5,44.4c89.2,0,147-56.7,142.3-60c-2.8-1.9-8.8,0.6-13.3,3c-3.2,2.3-5.6,3.3-5.6,3.3s2.4-1.7,5.6-3.3
			c3.8-2.7,8.9-7.1,12.8-13.6c0.8-1.3,0.8-3,0.2-4.9c-16.8-3.5-89.5-13.8-141.3-11.1C247.9,79.3,183.4,99.2,163.5,105.4z"/>
		<path class="st6" d="M140.3,109.3c5.5,0,13.4-0.8,23.2-3.9c19.9-6.2,84.4-26.1,140-29c51.8-2.7,124.5,7.6,141.3,11.1
			c-5.3-16-57.9-50.8-142-50.8c-87.4,0-131.4,57.6-152.5,57.6c-1.9,0-3.9-0.4-5.9-1.1C140.9,97.8,139.1,103.3,140.3,109.3z"/>
		<g>
			<path class="st7" d="M372.8,134.4c-20.2-33.1-9.5-60.9-1.4-74.6c0.2-0.4,0.8-0.5,1.2-0.3c0.4,0.2,0.6,0.7,0.3,1.1
				c-8,13.3-18.4,40.6,1.4,73c0.2,0.4,0.1,0.9-0.3,1.1c-0.1,0.1-0.3,0.1-0.4,0.1C373.2,134.8,372.9,134.6,372.8,134.4z"/>
		</g>
		<path class="st1" d="M282.3,123.6c0,0.4,0.3,0.7,0.7,0.7c0.3,0.1,30.2,5,47.3,9.6c2.8,0.8,5.4,1.1,7.8,1.1c3.7,0,6.9-0.9,9.5-2.7
			c7.4-5.2,7.5-15.8,7.5-16.2c0-0.4-0.3-0.7-0.8-0.8c-30.7-3.5-55.5,2.6-71.5,7.5C282.5,122.9,282.3,123.2,282.3,123.6z"/>
	</g>
	<g>
		<circle class="st7" cx="411.4" cy="86.9" r="10.8"/>
		<circle class="st8" cx="411.4" cy="86.6" r="7"/>
		<circle class="st7" cx="409.2" cy="88.7" r="2.2"/>
	</g>
</g>
</svg>
