<?xml version="1.0" encoding="utf-8"?>
<!-- Generator: Adobe Illustrator 26.1.0, SVG Export Plug-In . SVG Version: 6.00 Build 0)  -->
<svg version="1.1" id="レイヤー_1" xmlns="http://www.w3.org/2000/svg" xmlns:xlink="http://www.w3.org/1999/xlink" x="0px"
	 y="0px" viewBox="0 0 500 188.55" style="enable-background:new 0 0 500 188.55;" xml:space="preserve">
<style type="text/css">
	.st0{fill:#7A7874;}
	.st1{fill:#A09D98;}
	.st2{fill:#9FB2C1;}
	.st3{fill:#B2AC9E;}
	.st4{fill:none;}
	.st5{fill:#DCE1E5;}
	.st6{fill:#82A1C4;}
	.st7{fill:#FFFFFF;}
	.st8{fill:#2D2D2D;}
</style>
<g>
	<g>
		<path class="st0" d="M195.9,187.46c-0.08-0.18-7.83-17.74-8.76-31.27c-0.02-0.24-0.15-0.46-0.36-0.6l-10.07-6.6
			c-0.23-0.15-0.52-0.18-0.78-0.1l-12.54,4.19c-0.34,0.11-0.57,0.42-0.56,0.76c0.04,2.58,14.01,27.58,31.95,34.65
			c0.11,0.04,0.22,0.06,0.33,0.06c0.22,0,0.44-0.08,0.6-0.23C195.96,188.09,196.03,187.75,195.9,187.46z"/>
		<path class="st0" d="M307.75,133.46c-0.06-0.18-0.25-0.29-0.45-0.28l-24.51,2.56c-0.14,0.01-0.26,0.09-0.33,0.21l-4.13,7.21
			c-0.01,0-0.02,0-0.03,0c-0.29,0.02-0.56,0.18-0.69,0.42l-2.37,4.14c-0.16,0.29-0.12,0.64,0.1,0.88
			c0.35,0.38,8.62,9.35,23.38,12.41c0.06,0.01,0.12,0.02,0.19,0.02c0.26,0,0.5-0.11,0.66-0.3c0.08-0.02,0.16-0.05,0.21-0.11
			c0.1-0.11,0.13-0.25,0.09-0.39c-0.07-0.19-6.47-19.36,7.68-26.31C307.72,133.83,307.81,133.64,307.75,133.46z"/>
		<path class="st1" d="M300.95,43.12C300.99,56,317.84,59.1,317.84,59.1c0,5.95,0.75,15.22,7.32,23.66l-4.37,0.61l-39.88-23.4
			l-0.47-5.1L300.95,43.12z"/>
		<g>
			<path class="st0" d="M304.86,40.73c-0.16-0.35-0.56-0.54-0.96-0.46c-11.02,2.17-27.69,12.59-28.4,13.03
				c-0.2,0.13-0.34,0.33-0.37,0.56c-0.03,0.23,0.05,0.45,0.21,0.63l3.8,3.98c0.16,0.17,0.4,0.27,0.64,0.27
				c0.09,0,0.17-0.01,0.26-0.04l2.81-0.84c0.18-0.05,0.33-0.16,0.43-0.3c3.01-3.95,21.09-15.74,21.27-15.86
				C304.9,41.48,305.02,41.08,304.86,40.73z"/>
			<path class="st0" d="M323.35,57.02c-0.14-0.34-0.51-0.53-0.9-0.49c-8.02,0.95-22.57,8.95-23.19,9.29
				c-0.26,0.14-0.42,0.4-0.42,0.68v3.43c0,0.42,0.36,0.77,0.81,0.79l6.07,0.26c0.01,0,0.03,0,0.04,0c0.29,0,0.56-0.14,0.72-0.37
				c1.48-2.18,12.46-9.88,16.57-12.66C323.37,57.74,323.49,57.36,323.35,57.02z"/>
		</g>
		<path class="st1" d="M241.28,32.33c-9.88-0.86-19.63-9.48-20.93-14.02c-10.45-1.32-20.3-7.51-23.44-14.84l-19.33,17.21
			l-7.22,19.42l31.62,1.73l52.03,3.67C248.02,42.35,242.69,35.1,241.28,32.33z"/>
		<g>
			<path class="st0" d="M198.54,0.53c-14.86,6.07-29.37,26.61-35.6,37.79c-0.12,0.22-0.13,0.47-0.02,0.7
				c0.11,0.22,0.33,0.38,0.58,0.44l6.67,1.42c0.06,0.01,0.13,0.02,0.19,0.02c0.21,0,0.42-0.07,0.58-0.21l2.72-2.35
				c0.11-0.1,0.19-0.22,0.24-0.35c4.04-12.47,25.41-35.98,25.63-36.21c0.26-0.28,0.27-0.69,0.03-0.99
				C199.32,0.49,198.9,0.39,198.54,0.53z"/>
			<path class="st0" d="M222.6,15.63c-10.85,5.95-21.1,19.91-21.53,20.5c-0.1,0.13-0.15,0.29-0.15,0.44v1.76
				c0,0.23,0.11,0.45,0.29,0.6c0.16,0.13,0.35,0.19,0.56,0.19c0.04,0,0.08,0,0.12-0.01l7.26-0.93c0.32-0.04,0.59-0.25,0.69-0.53
				c2.41-6.73,13.76-20.72,13.87-20.86c0.25-0.3,0.23-0.72-0.04-1C223.39,15.51,222.95,15.44,222.6,15.63z"/>
			<path class="st0" d="M244.01,29.83c-0.27-0.27-0.7-0.33-1.04-0.15c-3.94,2.05-11.78,9.48-12.11,9.79
				c-0.16,0.15-0.25,0.36-0.24,0.57c0,0.21,0.1,0.41,0.27,0.56l2.86,2.5c0.16,0.14,0.37,0.21,0.58,0.21c0.18,0,0.35-0.05,0.51-0.15
				l2.16-1.48c0.12-0.08,0.21-0.19,0.27-0.31c1.29-2.67,6.78-10.49,6.84-10.56C244.32,30.5,244.28,30.1,244.01,29.83z"/>
		</g>
		<path class="st2" d="M68.15,106.05c3.24,2.29,5.6,3.35,5.6,3.35S71.33,107.75,68.15,106.05z"/>
		<path class="st0" d="M387.45,124.56c-0.36-0.28-0.4-0.78-0.1-1.12c0.3-0.33,0.84-0.37,1.2-0.09
			c22.36,17.63,43.34,23.3,52.78,24.46c-3.85-4.44-10.03-10.06-16.89-15.73c-15.65-2.54-30.76-13.23-31.41-13.69
			c-0.37-0.27-0.44-0.76-0.16-1.11c0.29-0.35,0.82-0.41,1.19-0.15c0.15,0.1,13.55,9.57,27.78,12.82
			c-13.01-10.53-27.6-20.75-32.96-23.39c5.35-2.64,19.9-12.83,32.9-23.34c-14.2,3.26-27.57,12.7-27.71,12.81
			c-0.15,0.11-0.34,0.16-0.52,0.16c-0.26,0-0.51-0.11-0.68-0.31c-0.29-0.35-0.22-0.84,0.16-1.11c0.65-0.47,15.73-11.13,31.36-13.68
			c6.86-5.67,13.05-11.28,16.91-15.73c-9.46,1.17-30.41,6.85-52.74,24.45c-0.16,0.13-0.36,0.19-0.55,0.19
			c-0.24,0-0.48-0.1-0.65-0.28c-0.3-0.33-0.26-0.83,0.1-1.12c21.83-17.21,44.22-24.2,55.29-25c3.39-4.36,3.89-7.23-0.51-7.26
			c-44.89-0.25-68.6,30.75-86.7,36.98c5.63,6.86,6.73,16.41-0.49,26.07c19.61,5.44,41.5,37.63,87.19,37.37
			c4.39-0.02,3.9-2.88,0.54-7.22C431.72,148.77,409.31,141.79,387.45,124.56z"/>
		<g>
			<path class="st3" d="M387.36,89.72c0.17,0.18,0.41,0.28,0.65,0.28c0.19,0,0.39-0.06,0.55-0.19
				c22.33-17.61,43.28-23.28,52.74-24.45c0.53-0.61,1.01-1.19,1.44-1.75c-11.06,0.8-33.46,7.79-55.29,25
				C387.1,88.89,387.05,89.39,387.36,89.72z"/>
			<path class="st3" d="M392.88,95.88c0.17,0.2,0.42,0.31,0.68,0.31c0.18,0,0.36-0.05,0.52-0.16c0.15-0.11,13.51-9.55,27.71-12.81
				c0.88-0.71,1.75-1.42,2.61-2.13c-15.63,2.56-30.7,13.22-31.36,13.68C392.66,95.04,392.59,95.54,392.88,95.88z"/>
			<path class="st3" d="M387.36,123.44c-0.3,0.33-0.26,0.83,0.1,1.12c21.85,17.23,44.27,24.21,55.32,25
				c-0.43-0.56-0.91-1.14-1.44-1.75c-9.45-1.16-30.42-6.83-52.78-24.46C388.2,123.07,387.66,123.11,387.36,123.44z"/>
			<path class="st3" d="M392.88,117.28c-0.29,0.35-0.22,0.84,0.16,1.11c0.66,0.47,15.77,11.15,31.41,13.69
				c-0.86-0.71-1.73-1.42-2.6-2.13c-14.23-3.25-27.63-12.72-27.78-12.82C393.7,116.87,393.16,116.94,392.88,117.28z"/>
		</g>
		<path class="st4" d="M68.15,106.05c3.24,2.29,5.6,3.35,5.6,3.35S71.33,107.75,68.15,106.05z"/>
		<path class="st5" d="M196.45,76.43c-51.79-2.7-124.5,7.62-141.32,11.1c-0.64,1.94-0.59,3.61,0.19,4.9
			c3.91,6.47,8.99,10.9,12.83,13.61c3.18,1.7,5.6,3.35,5.6,3.35s-2.36-1.06-5.6-3.35c-4.52-2.42-10.55-4.95-13.3-3.01
			c-4.68,3.31,53.13,60,142.31,60c84.01,0,119.64-44.42,152.49-44.42c1.79,0,3.57,0.28,5.38,0.78c2.57-3.44,4.08-6.86,4.71-10.16
			c-5.49,0-13.4-0.77-23.25-3.86C316.64,99.15,252.07,79.33,196.45,76.43z"/>
		<path class="st6" d="M355.53,93.34c-2.02,0.7-3.97,1.09-5.88,1.09c-21.05,0-65.05-57.64-152.49-57.64
			c-84.11,0-136.73,34.76-142.03,50.75c16.82-3.49,89.53-13.8,141.32-11.1c55.61,2.9,120.18,22.72,140.05,28.96
			c9.84,3.09,17.76,3.86,23.25,3.86C360.9,103.29,359.15,97.75,355.53,93.34z"/>
		<g>
			<path class="st7" d="M126.51,134.76c-0.14,0-0.29-0.03-0.42-0.1c-0.41-0.22-0.55-0.7-0.32-1.08c19.76-32.42,9.36-59.67,1.4-73.02
				c-0.23-0.38-0.08-0.86,0.33-1.08c0.41-0.21,0.93-0.07,1.16,0.31c8.13,13.65,18.76,41.48-1.41,74.57
				C127.09,134.62,126.8,134.76,126.51,134.76z"/>
		</g>
		<path class="st1" d="M217.11,122.78c-15.99-4.88-40.8-10.97-71.49-7.52c-0.43,0.05-0.75,0.39-0.75,0.79
			c0,0.45,0.09,11.04,7.53,16.24c2.62,1.83,5.8,2.74,9.51,2.74c2.39,0,5-0.38,7.81-1.14c17.08-4.61,46.97-9.53,47.27-9.58
			c0.38-0.06,0.67-0.36,0.7-0.72C217.72,123.23,217.48,122.9,217.11,122.78z"/>
	</g>
	<g>
		<circle class="st7" cx="88.62" cy="86.95" r="10.8"/>
		<circle class="st8" cx="88.62" cy="86.57" r="7.01"/>
		<circle class="st7" cx="90.78" cy="88.73" r="2.16"/>
	</g>
</g>
</svg>
