<?xml version="1.0" encoding="utf-8"?>
<!-- Generator: Adobe Illustrator 26.1.0, SVG Export Plug-In . SVG Version: 6.00 Build 0)  -->
<svg version="1.1" id="レイヤー_1" xmlns="http://www.w3.org/2000/svg" xmlns:xlink="http://www.w3.org/1999/xlink" x="0px"
	 y="0px" viewBox="0 0 500 188.55" style="enable-background:new 0 0 500 188.55;" xml:space="preserve">
<style type="text/css">
	.st0{fill:#50646D;}
	.st1{fill:#DFE9EF;}
	.st2{fill:none;stroke:#000000;stroke-width:1.0774;stroke-miterlimit:10;}
	.st3{fill:none;}
	.st4{fill:#4A7891;}
	.st5{fill:#D6DFE5;}
	.st6{fill:#FFFFFF;}
	.st7{fill:#2D2D2D;}
	.st8{fill:#6D7E84;}
</style>
<g>
	<path class="st0" d="M185.31,43.14c18.31-20.01,44.31-39.42,47.97-37.59s6,20.5,17.08,30.88c11.08,10.38,12.53,11.13,7.09,14.05
		l-43.17,4.57L185.31,43.14z"/>
	<path class="st1" d="M200.57,155.39c9.09,8.1,35.21,19.83,37.86,15.35s-13.05-16.86-22.69-17.45S200.57,155.39,200.57,155.39z"/>
	<path class="st1" d="M317.82,143.58c7.64,2.36,26.45,2.23,26.81-1.17c0.36-3.41-12.4-6.51-18.32-4.23
		C320.4,140.46,317.82,143.58,317.82,143.58z"/>
	<path class="st2" d="M20.12,107.68c0.62,0.72,1.23,1.4,1.83,2.03C21.95,109.71,21.24,108.9,20.12,107.68z"/>
	<path class="st3" d="M20.12,107.68c0.62,0.72,1.23,1.4,1.83,2.03C21.95,109.71,21.24,108.9,20.12,107.68z"/>
	<path class="st4" d="M445.78,97.99c-0.31-6.71-2.02-12.49-4.36-16.62c-4.45,2.52-8.4,3.97-12.41,3.97
		c-29.29,0-187.86-43.94-263.76-43.94C96.34,41.4,17.64,63.96,8,84.35C89.37,71.79,288.91,75.96,445.78,97.99z"/>
	<path class="st5" d="M8,84.35c-0.21,0.45-0.41,0.91-0.55,1.36c-0.71,2.21-0.28,4.62,1.03,6.53c2.24,3.26,7.21,10.31,11.64,15.44
		c1.12,1.22,1.83,2.03,1.83,2.03c-0.59-0.63-1.2-1.31-1.83-2.03c-3.61-3.94-11.56-12.17-14.26-11.47
		c-3.54,0.92-15.07,6.96,9.1,24.62c17.87,13.06,90.81,42.12,153.11,41.62c73.22-0.59,137.96-14.91,181.93-26.02
		c43.97-11.12,67.09-22.46,79.48-22.46c2.95,0,7.47,1.84,12.78,4.71c2.86-7.33,3.81-14.42,3.52-20.7
		C288.91,75.96,89.37,71.79,8,84.35z"/>
	<g>
		<circle class="st6" cx="54.82" cy="88.66" r="15.48"/>
		<circle class="st7" cx="54.82" cy="88.11" r="10.04"/>
		<circle class="st6" cx="57.91" cy="91.21" r="3.09"/>
	</g>
	<g>
		<path class="st6" d="M85.87,138.73c-0.3,0-0.59-0.12-0.8-0.36c-0.4-0.44-0.36-1.13,0.09-1.52c10.66-9.49,17.07-23.03,17.58-37.15
			c0.41-11.31-3.07-21.38-9.82-28.33c-0.41-0.43-0.4-1.11,0.02-1.52s1.11-0.4,1.52,0.02c7.16,7.38,10.86,18,10.43,29.91
			c-0.54,14.7-7.21,28.8-18.3,38.68C86.38,138.64,86.12,138.73,85.87,138.73z"/>
	</g>
	<path class="st1" d="M97.87,138.1c-8.57-5.87,19.75,47.93,27.09,43.21c5.13-3.3,8.79-13.18,5.49-16.48s-21.34-21.19-22.77-22.21
		C107.69,142.62,104.66,142.75,97.87,138.1z"/>
	<g>
		<path class="st0" d="M462.69,118.4c0.31-0.51,0.97-0.67,1.48-0.37c11,6.62,22,13.48,32.85,20.46c-2.13-5.31-5.26-11.21-8.93-16.56
			c-7.73-3.48-15.55-6.86-23.34-10.08c-0.55-0.23-0.81-0.86-0.58-1.41c0.23-0.55,0.86-0.81,1.41-0.58
			c6.67,2.75,13.35,5.63,19.99,8.58c-2.17-2.82-4.49-5.39-6.85-7.5c-15.1-13.44-16.63-8.87-2.28-23.33c1.09-1.1,2.47-2.75,4.01-4.77
			c-6.23,2.54-12.33,5.38-18.25,8.52c-0.16,0.09-0.33,0.13-0.5,0.13c-0.39,0-0.76-0.21-0.95-0.57c-0.28-0.53-0.08-1.18,0.45-1.46
			c7.01-3.72,14.26-7.03,21.67-9.9c3.47-4.89,7.37-11,10.52-16.67l-34.1,20.68c-0.17,0.11-0.37,0.16-0.56,0.16
			c-0.36,0-0.72-0.18-0.92-0.52c-0.31-0.51-0.15-1.17,0.36-1.48l36.98-22.42c0.06-0.04,0.14-0.05,0.21-0.07
			c4.69-9.13,6.53-15.96-0.14-12.47c-27.57,14.47-42.31,28.1-53.76,34.59c4.52,8.01,6.76,22.15,0.84,37.32
			c17.01,9.21,42.13,29.13,49.74,33.97c8.59,5.46,9.53-1.02,6.26-10.78c-11.61-7.51-23.41-14.89-35.21-22
			C462.54,119.57,462.38,118.91,462.69,118.4z"/>
		<path class="st8" d="M458.14,81.74c-0.51,0.31-0.67,0.97-0.36,1.48c0.2,0.33,0.56,0.52,0.92,0.52c0.19,0,0.38-0.05,0.56-0.16
			l34.1-20.68c0.69-1.25,1.35-2.47,1.96-3.66c-0.07,0.02-0.14,0.03-0.21,0.07L458.14,81.74z"/>
		<path class="st8" d="M460.71,90.93c0.19,0.37,0.57,0.57,0.95,0.57c0.17,0,0.34-0.04,0.5-0.13c5.92-3.14,12.03-5.98,18.25-8.52
			c0.77-1.01,1.58-2.11,2.41-3.29c-7.41,2.88-14.67,6.19-21.67,9.9C460.64,89.75,460.43,90.4,460.71,90.93z"/>
		<path class="st8" d="M464.16,110.46c-0.23,0.55,0.03,1.18,0.58,1.41c7.79,3.22,15.61,6.6,23.34,10.08
			c-0.82-1.19-1.66-2.36-2.53-3.49c-6.64-2.95-13.32-5.83-19.99-8.58C465.02,109.64,464.39,109.91,464.16,110.46z"/>
		<path class="st8" d="M464.17,118.04c-0.51-0.31-1.17-0.14-1.48,0.37c-0.31,0.51-0.14,1.17,0.37,1.48
			c11.8,7.1,23.59,14.48,35.21,22c-0.37-1.09-0.78-2.22-1.25-3.38C486.17,131.52,475.16,124.66,464.17,118.04z"/>
	</g>
</g>
</svg>
