<?xml version="1.0" encoding="utf-8"?>
<!-- Generator: Adobe Illustrator 26.1.0, SVG Export Plug-In . SVG Version: 6.00 Build 0)  -->
<svg version="1.1" id="レイヤー_1" xmlns="http://www.w3.org/2000/svg" xmlns:xlink="http://www.w3.org/1999/xlink" x="0px"
	 y="0px" viewBox="0 0 500 188.6" style="enable-background:new 0 0 500 188.6;" xml:space="preserve">
<style type="text/css">
	.st0{fill:#50646D;}
	.st1{fill:#DFE9EF;}
	.st2{fill:none;stroke:#000000;stroke-width:1.0774;stroke-miterlimit:10;}
	.st3{fill:none;}
	.st4{fill:#4A7891;}
	.st5{fill:#D6DFE5;}
	.st6{fill:#FFFFFF;}
	.st7{fill:#2D2D2D;}
	.st8{fill:#6D7E84;}
</style>
<g>
	<path class="st0" d="M285.8,55l-43.2-4.6c-5.4-2.9-4-3.7,7.1-14s13.4-29.1,17.1-30.9s29.7,17.6,48,37.6L285.8,55z"/>
	<path class="st1" d="M284.3,153.3c-9.6,0.6-25.3,13-22.7,17.4c2.7,4.5,28.8-7.2,37.9-15.4C299.5,155.4,293.9,152.7,284.3,153.3z"/>
	<path class="st1" d="M173.7,138.2c-5.9-2.3-18.7,0.8-18.3,4.2c0.4,3.4,19.2,3.5,26.8,1.2C182.2,143.6,179.6,140.5,173.7,138.2z"/>
	<path class="st2" d="M478.1,109.7c0.6-0.6,1.2-1.3,1.8-2C478.8,108.9,478.1,109.7,478.1,109.7z"/>
	<path class="st3" d="M478.1,109.7c0.6-0.6,1.2-1.3,1.8-2C478.8,108.9,478.1,109.7,478.1,109.7z"/>
	<path class="st4" d="M492,84.3c-9.6-20.4-88.3-42.9-157.2-43c-75.9,0-234.5,43.9-263.8,43.9c-4,0-8-1.5-12.4-4
		c-2.3,4.1-4,9.9-4.4,16.6C211.1,76,410.7,71.8,492,84.3z"/>
	<path class="st5" d="M54.3,98c-0.3,6.3,0.7,13.4,3.5,20.7c5.3-2.9,9.8-4.7,12.8-4.7c12.4,0,35.5,11.3,79.5,22.5
		c44,11.1,108.7,25.4,181.9,26c62.3,0.5,135.2-28.6,153.1-41.6c24.2-17.7,12.6-23.7,9.1-24.6c-2.7-0.7-10.7,7.5-14.3,11.5
		c-0.6,0.7-1.2,1.4-1.8,2c0,0,0.7-0.8,1.8-2c4.4-5.1,9.4-12.2,11.6-15.4c1.3-1.9,1.7-4.3,1-6.5c-0.1-0.4-0.3-0.9-0.5-1.4
		C410.7,71.8,211.1,76,54.3,98z"/>
	<g>
		<circle class="st6" cx="445.2" cy="88.7" r="15.5"/>
		<circle class="st7" cx="445.2" cy="88.1" r="10"/>
		<circle class="st6" cx="442.1" cy="91.2" r="3.1"/>
	</g>
	<g>
		<path class="st6" d="M413.4,138.5c-11.1-9.9-17.8-24-18.3-38.7c-0.4-11.9,3.3-22.5,10.4-29.9c0.4-0.4,1.1-0.4,1.5,0
			c0.4,0.4,0.4,1.1,0,1.5c-6.8,7-10.2,17-9.8,28.3c0.5,14.1,6.9,27.7,17.6,37.2c0.5,0.4,0.5,1.1,0.1,1.5c-0.2,0.2-0.5,0.4-0.8,0.4
			C413.9,138.7,413.7,138.6,413.4,138.5z"/>
	</g>
	<path class="st1" d="M392.4,142.6c-1.4,1-19.5,18.9-22.8,22.2s0.4,13.2,5.5,16.5c7.3,4.7,35.7-49.1,27.1-43.2
		C395.4,142.8,392.3,142.6,392.4,142.6z"/>
	<g>
		<path class="st0" d="M36.9,119.9c-11.8,7.1-23.6,14.5-35.2,22c-3.3,9.8-2.3,16.2,6.3,10.8c7.6-4.8,32.7-24.8,49.7-34
			c-5.9-15.2-3.7-29.3,0.8-37.3C47.1,74.9,32.4,61.2,4.8,46.8c-6.7-3.5-4.8,3.3-0.1,12.5c0.1,0,0.1,0,0.2,0.1l37,22.4
			c0.5,0.3,0.7,1,0.4,1.5c-0.2,0.3-0.6,0.5-0.9,0.5c-0.2,0-0.4-0.1-0.6-0.2L6.6,62.9c3.1,5.7,7,11.8,10.5,16.7
			c7.4,2.9,14.7,6.2,21.7,9.9c0.5,0.3,0.7,0.9,0.5,1.5c-0.2,0.4-0.6,0.6-1,0.6c-0.2,0-0.3,0-0.5-0.1c-5.9-3.1-12-6-18.2-8.5
			c1.5,2,2.9,3.7,4,4.8c14.4,14.5,12.8,9.9-2.3,23.3c-2.4,2.1-4.7,4.7-6.9,7.5c6.6-3,13.3-5.8,20-8.6c0.6-0.2,1.2,0,1.4,0.6
			s0,1.2-0.6,1.4c-7.8,3.2-15.6,6.6-23.3,10.1c-3.7,5.3-6.8,11.2-8.9,16.6c10.9-7,21.9-13.8,32.9-20.5c0.5-0.3,1.2-0.1,1.5,0.4
			S37.5,119.6,36.9,119.9z"/>
		<path class="st8" d="M4.9,59.3c-0.1,0-0.1,0-0.2-0.1c0.6,1.2,1.3,2.4,2,3.7l34.1,20.7c0.2,0.1,0.4,0.2,0.6,0.2
			c0.4,0,0.7-0.2,0.9-0.5c0.3-0.5,0.2-1.2-0.4-1.5L4.9,59.3z"/>
		<path class="st8" d="M38.9,89.5c-7-3.7-14.3-7-21.7-9.9c0.8,1.2,1.6,2.3,2.4,3.3c6.2,2.5,12.3,5.4,18.2,8.5
			c0.2,0.1,0.3,0.1,0.5,0.1c0.4,0,0.8-0.2,1-0.6C39.6,90.4,39.4,89.8,38.9,89.5z"/>
		<path class="st8" d="M34.5,109.9c-6.7,2.8-13.3,5.6-20,8.6c-0.9,1.1-1.7,2.3-2.5,3.5c7.7-3.5,15.5-6.9,23.3-10.1
			c0.5-0.2,0.8-0.9,0.6-1.4C35.6,109.9,35,109.6,34.5,109.9z"/>
		<path class="st8" d="M3,138.5c-0.5,1.2-0.9,2.3-1.2,3.4c11.6-7.5,23.4-14.9,35.2-22c0.5-0.3,0.7-1,0.4-1.5s-1-0.7-1.5-0.4
			C24.9,124.7,13.9,131.5,3,138.5z"/>
	</g>
</g>
</svg>
