<?xml version="1.0" encoding="utf-8"?>
<!-- Generator: Adobe Illustrator 26.1.0, SVG Export Plug-In . SVG Version: 6.00 Build 0)  -->
<svg version="1.1" id="レイヤー_1" xmlns="http://www.w3.org/2000/svg" xmlns:xlink="http://www.w3.org/1999/xlink" x="0px"
	 y="0px" viewBox="0 0 500 188.55" style="enable-background:new 0 0 500 188.55;" xml:space="preserve">
<style type="text/css">
	.st0{fill:#C5CFD6;}
	.st1{fill:#6A8AAA;}
	.st2{fill:#DADFE3;}
	.st3{fill:#809FC2;}
	.st4{fill:#FFFFFF;}
	.st5{fill:#2D2D2D;}
	.st6{fill:none;stroke:#FFFFFF;stroke-width:2;stroke-linecap:round;stroke-miterlimit:10;}
	.st7{fill:#B8CEE0;}
</style>
<g>
	<polygon class="st0" points="342.32,130.76 352.8,134.26 355.38,126.36 363.7,130.31 366.91,122.22 374.82,126.75 377.24,118.29 
		384.48,123.24 386.54,114.56 392.82,118.19 394.39,111.27 389.09,107.21 	"/>
	<path class="st0" d="M193.56,148.01c2.83,13.2,14.14,35.51,21.37,40.54c0,0,9.27-24.49,20.43-30.49l-10.48-8.34L193.56,148.01z"/>
	<polygon class="st1" points="343.64,57.93 352.3,54.62 355.43,61.94 364.64,58.28 367.16,66.17 375.04,62.5 376.61,69.74 
		384.56,66.74 386.94,73.79 394.09,70.64 396.15,77.5 343.64,62.5 	"/>
	<path class="st1" d="M193.56,34.37C200.82,24.36,219.17,7.4,231.52,0c0,0,9.55,27.37,29.3,36.98l-42.01,7.5L193.56,34.37z"/>
	<path class="st1" d="M302.18,46.19c4.51-6.35,12.46-9.4,17.78-9.75c0,0,7.28,16.51,15.42,19.14c8.14,2.63-13.36,1.12-13.36,1.12
		L302.18,46.19z"/>
	<path class="st0" d="M305.89,141.75c0,0,11.78,6.41,15.38,7.73c0,0,5.45-11.64,9.18-14.5c3.73-2.86-13.05,0-13.05,0L305.89,141.75z
		"/>
	<path class="st2" d="M34.91,82.91c-1.36,1.24-2.67,2.5-3.92,3.79c-2.5,2.59-2.1,6.66,0.81,8.83l17.15,12.54l-19.2-12.05
		c-0.77-0.48-1.79-0.13-2.09,0.69c-1.21,3.33-0.95,12.07,25.31,23.93c64.68,29.21,120.74,33.3,164.65,33.3
		c75.86,0,165.93-36.88,191.05-49.17c0,0,0.13,0.14,0.39,0.4c3.69-3.71,5.55-7.6,5.54-11.45C314.08,78.27,206,65,34.91,82.91z"/>
	<path class="st0" d="M137.39,106.38c-14.97-6.49,68.81-20.18,54.52-3.01c-14.29,17.17-22.4,17.52-39.2,15.95
		C152.71,119.32,143.47,109.01,137.39,106.38z"/>
	<path class="st3" d="M414.61,93.71c-0.01-3.87-1.89-7.7-5.66-11.28c-0.17,0.16-0.26,0.24-0.26,0.24
		C378.55,70.3,294.39,33.73,216.5,33.73c-71.74,0-145.88,16.6-181.59,49.18C206,65,314.08,78.27,414.61,93.71z"/>
	<g>
		<circle class="st4" cx="70.24" cy="88.67" r="12.63"/>
		<circle class="st5" cx="70.24" cy="88.22" r="8.19"/>
		<circle class="st4" cx="72.77" cy="90.75" r="2.53"/>
	</g>
	<path class="st6" d="M120.47,68.78c10.35,19.44,5.5,48.23-5.89,61.98"/>
	<g>
		<path class="st1" d="M429.82,109.89c0.35-0.43,0.98-0.49,1.41-0.14c8.51,6.96,17.69,12.97,27.4,18
			c-2.36-4.03-4.85-8.06-7.14-11.69c-6.03-2.82-11.81-6.17-17.26-10.04c-0.45-0.32-0.56-0.94-0.24-1.39
			c0.32-0.45,0.95-0.56,1.39-0.24c4.47,3.17,9.17,5.98,14.04,8.44c-3.43-5.33-6.09-9.28-6.64-10.14c-2.26-3.52-5.27-8.04,1-15.57
			c1.75-2.1,5.71-6.95,10.16-12.79c-6.51,2.92-12.73,6.45-18.57,10.59c-0.17,0.12-0.38,0.18-0.58,0.18c-0.31,0-0.62-0.15-0.82-0.42
			c-0.32-0.45-0.21-1.07,0.24-1.39c6.9-4.89,14.33-8.97,22.14-12.17c3.09-4.16,6.27-8.62,8.99-12.83
			c-12.23,5.62-23.69,12.73-34.14,21.28c-0.19,0.15-0.41,0.23-0.63,0.23c-0.29,0-0.58-0.12-0.78-0.37
			c-0.35-0.43-0.29-1.06,0.14-1.41c11.37-9.3,23.91-16.96,37.34-22.82c5.69-9.39,8.21-16.7,0.86-15.07
			c-16.06,3.57-55.63,39.06-59.22,42.3c7.53,7.13,7.53,15.29,0.12,22.73c3.83,3.95,35.46,36.35,54.07,46.25
			c10.27,5.46,5.06-6.85-2.67-20.48c-10.87-5.36-21.09-11.94-30.51-19.64C429.54,110.95,429.47,110.32,429.82,109.89z"/>
		<g>
			<path class="st7" d="M429.82,79.44c0.2,0.24,0.49,0.37,0.78,0.37c0.22,0,0.45-0.07,0.63-0.23c10.45-8.55,21.91-15.66,34.14-21.28
				c0.68-1.05,1.32-2.08,1.93-3.09c-13.43,5.86-25.97,13.52-37.34,22.82C429.54,78.38,429.47,79.01,429.82,79.44z"/>
			<path class="st7" d="M434,84.69c0.19,0.27,0.5,0.42,0.82,0.42c0.2,0,0.4-0.06,0.58-0.18c5.83-4.14,12.05-7.67,18.57-10.59
				c0.79-1.04,1.6-2.12,2.42-3.21c-7.81,3.21-15.25,7.28-22.14,12.17C433.79,83.62,433.68,84.24,434,84.69z"/>
			<path class="st7" d="M431.23,109.75c-0.43-0.35-1.06-0.29-1.41,0.14s-0.29,1.06,0.14,1.41c9.42,7.71,19.64,14.28,30.51,19.64
				c-0.6-1.06-1.21-2.12-1.84-3.19C448.92,122.72,439.74,116.71,431.23,109.75z"/>
			<path class="st7" d="M434,104.64c-0.32,0.45-0.21,1.07,0.24,1.39c5.45,3.86,11.22,7.21,17.26,10.04c-0.71-1.12-1.4-2.2-2.06-3.23
				c-4.88-2.46-9.58-5.27-14.04-8.44C434.95,104.08,434.32,104.19,434,104.64z"/>
		</g>
	</g>
</g>
</svg>
