<?xml version="1.0" encoding="utf-8"?>
<!-- Generator: Adobe Illustrator 26.1.0, SVG Export Plug-In . SVG Version: 6.00 Build 0)  -->
<svg version="1.1" id="レイヤー_1" xmlns="http://www.w3.org/2000/svg" xmlns:xlink="http://www.w3.org/1999/xlink" x="0px"
	 y="0px" viewBox="0 0 500 188.6" style="enable-background:new 0 0 500 188.6;" xml:space="preserve">
<style type="text/css">
	.st0{fill:#C5CFD6;}
	.st1{fill:#6A8AAA;}
	.st2{fill:#DADFE3;}
	.st3{fill:#809FC2;}
	.st4{fill:#FFFFFF;}
	.st5{fill:#2D2D2D;}
	.st6{fill:none;stroke:#FFFFFF;stroke-width:2;stroke-linecap:round;stroke-miterlimit:10;}
	.st7{fill:#B8CEE0;}
</style>
<g>
	<polygon class="st0" points="110.9,107.2 105.6,111.3 107.1,118.2 113.4,114.6 115.5,123.2 122.7,118.3 125.1,126.8 133.1,122.2 
		136.3,130.3 144.6,126.4 147.2,134.3 157.6,130.8 	"/>
	<path class="st0" d="M275.1,149.7l-10.5,8.3c11.2,6,20.4,30.5,20.4,30.5c7.2-5,18.5-27.3,21.4-40.5L275.1,149.7z"/>
	<polygon class="st1" points="156.3,62.5 103.8,77.5 105.9,70.6 113,73.8 115.4,66.7 123.4,69.7 124.9,62.5 132.8,66.2 135.3,58.3 
		144.5,61.9 147.7,54.6 156.3,57.9 	"/>
	<path class="st1" d="M281.2,44.5l-42-7.5c19.8-9.6,29.3-37,29.3-37c12.4,7.4,30.7,24.4,38,34.4L281.2,44.5z"/>
	<path class="st1" d="M177.9,56.7c0,0-21.5,1.5-13.4-1.1S180,36.4,180,36.4c5.3,0.4,13.3,3.4,17.8,9.8L177.9,56.7z"/>
	<path class="st0" d="M182.6,135c0,0-16.8-2.9-13,0c3.7,2.9,9.2,14.5,9.2,14.5c3.6-1.3,15.4-7.7,15.4-7.7L182.6,135z"/>
	<path class="st2" d="M85.4,93.7c0,3.8,1.9,7.7,5.5,11.4c0.3-0.3,0.4-0.4,0.4-0.4c25.1,12.3,115.2,49.2,191,49.2
		c43.9,0,100-4.1,164.6-33.3c26.3-11.9,26.5-20.6,25.3-23.9c-0.3-0.8-1.3-1.2-2.1-0.7L451,108.1l17.2-12.5c2.9-2.2,3.3-6.2,0.8-8.8
		c-1.2-1.3-2.6-2.6-3.9-3.8C294,65,185.9,78.3,85.4,93.7z"/>
	<path class="st0" d="M347.3,119.3c-16.8,1.6-24.9,1.2-39.2-15.9c-14.3-17.2,69.5-3.5,54.5,3C356.5,109,347.3,119.3,347.3,119.3z"/>
	<path class="st3" d="M465.1,82.9c-35.7-32.6-109.9-49.2-181.6-49.2c-77.9,0-162,36.6-192.2,48.9c0,0-0.1-0.1-0.3-0.2
		c-3.8,3.6-5.6,7.4-5.7,11.3C185.9,78.3,294,65,465.1,82.9z"/>
	<g>
		<circle class="st4" cx="429.7" cy="88.7" r="12.6"/>
		<circle class="st5" cx="429.7" cy="88.2" r="8.2"/>
		<circle class="st4" cx="427.2" cy="90.8" r="2.5"/>
	</g>
	<path class="st6" d="M385.4,130.8c-11.4-13.8-16.2-42.5-5.9-62"/>
	<g>
		<path class="st1" d="M70,111.3c-9.4,7.7-19.6,14.3-30.5,19.6c-7.7,13.6-12.9,25.9-2.7,20.5c18.6-9.9,50.2-42.3,54.1-46.2
			c-7.4-7.4-7.4-15.6,0.1-22.7c-3.6-3.2-43.2-38.7-59.2-42.3c-7.4-1.6-4.8,5.7,0.9,15.1C46.1,61.1,58.7,68.7,70,78
			c0.4,0.4,0.5,1,0.1,1.4c-0.2,0.2-0.5,0.4-0.8,0.4c-0.2,0-0.4-0.1-0.6-0.2C58.3,71,46.9,63.9,34.6,58.3c2.7,4.2,5.9,8.7,9,12.8
			c7.8,3.2,15.2,7.3,22.1,12.2c0.4,0.3,0.6,0.9,0.2,1.4c-0.2,0.3-0.5,0.4-0.8,0.4c-0.2,0-0.4-0.1-0.6-0.2
			c-5.8-4.1-12.1-7.7-18.6-10.6c4.5,5.8,8.4,10.7,10.2,12.8c6.3,7.5,3.3,12.1,1,15.6c-0.6,0.9-3.2,4.8-6.6,10.1
			c4.9-2.5,9.6-5.3,14-8.4c0.4-0.3,1.1-0.2,1.4,0.2s0.2,1.1-0.2,1.4c-5.5,3.9-11.2,7.2-17.3,10c-2.3,3.6-4.8,7.7-7.1,11.7
			c9.7-5,18.9-11,27.4-18c0.4-0.3,1.1-0.3,1.4,0.1S70.4,110.9,70,111.3z"/>
		<g>
			<path class="st7" d="M70,78c-11.4-9.3-23.9-17-37.3-22.8c0.6,1,1.2,2,1.9,3.1C46.8,63.9,58.3,71,68.7,79.6
				c0.2,0.2,0.4,0.2,0.6,0.2c0.3,0,0.6-0.1,0.8-0.4C70.5,79,70.4,78.4,70,78z"/>
			<path class="st7" d="M65.7,83.3c-6.9-4.9-14.3-9-22.1-12.2c0.8,1.1,1.6,2.2,2.4,3.2c6.5,2.9,12.7,6.5,18.6,10.6
				c0.2,0.1,0.4,0.2,0.6,0.2c0.3,0,0.6-0.2,0.8-0.4C66.3,84.2,66.2,83.6,65.7,83.3z"/>
			<path class="st7" d="M41.3,127.8c-0.6,1.1-1.2,2.1-1.8,3.2c10.9-5.4,21.1-11.9,30.5-19.6c0.4-0.4,0.5-1,0.1-1.4s-1-0.5-1.4-0.1
				C60.2,116.7,51,122.7,41.3,127.8z"/>
			<path class="st7" d="M64.6,104.4c-4.5,3.2-9.2,6-14,8.4c-0.7,1-1.4,2.1-2.1,3.2c6-2.8,11.8-6.2,17.3-10c0.4-0.3,0.6-0.9,0.2-1.4
				S65,104.1,64.6,104.4z"/>
		</g>
	</g>
</g>
</svg>
