<?xml version="1.0" encoding="utf-8"?>
<!-- Generator: Adobe Illustrator 26.1.0, SVG Export Plug-In . SVG Version: 6.00 Build 0)  -->
<svg version="1.1" id="レイヤー_1" xmlns="http://www.w3.org/2000/svg" xmlns:xlink="http://www.w3.org/1999/xlink" x="0px"
	 y="0px" viewBox="0 0 500 188.55" style="enable-background:new 0 0 500 188.55;" xml:space="preserve">
<style type="text/css">
	.st0{fill:#876E76;}
	.st1{fill:#8C737C;}
	.st2{fill:#7F6169;}
	.st3{fill:#FFFFFF;}
	.st4{fill:#2D2D2D;}
</style>
<path class="st0" d="M341.66,67.39c0,0,36.43,2.05,40.32,0.2c0,0,4.46-23.74-14.51-30.68c-26.66-9.75-69.4-1.86-79.22-2.68
	c-9.82-0.82-23.13-4.57-27.02-16.71c-3.89-12.14,4.09,1.37,19.24,2.39c15.14,1.02,40.4-3.74,61.6-3.9
	c21.56-0.16,54.85,1.21,63.04,38.06c0,0,45.98-18.29,44.55-32.21c-1.43-13.92-20.4-19.35-20.4-19.35s20.47-3.81,30.09,10.11
	c9.62,13.92-4.3,37.83-26,46.92c0,0,24.85-3.17,40.41-19.07c8.17-8.34,8.17-19.71,7.99-30.89c0,0,15.07,27.72-3.55,45.45
	c-12.55,11.95-37.69,19.51-37.69,19.51s37.18-1.52,53.41-30.27c0,0,5.87,32.76-40.89,38.58c0,0,17.27,2.63,23.07-1.68
	c13.43-9.98,21.81-3.77,21.39,1.68c0,0-5.97-4.51-10.32-1.47c-5.46,3.82-8.73,9.55-20.55,10.32c-12.44,0.81-17.33,2.55-17.33,2.55
	s9.2,1.62,21.57,3.17s10.09,8.26,16.85,12c5.46,3.01,9.78-3.69,9.78-3.69c0.42,5.45-3.91,17.62-21.39,1.68
	c-5.34-4.87-23.07-1.68-23.07-1.68c48.44,13.63,39.77,41.53,39.77,41.53c-16.49-29.45-52.29-33.22-52.29-33.22
	s22.72,3.25,40.73,29.24s-1.52,36.6-1.52,36.6c1.02-0.61,8.73-10.46-3.76-28.88s-42.61-21.96-42.61-21.96
	c21.69,9.08,38.82,31.42,27.15,48.33c-9.61,13.92-31.24,8.69-31.24,8.69s23.2-5.36,22.78-19.35c-0.35-11.88-46.93-32.21-46.93-32.21
	c-8.19,36.85-32.23,38.23-57.81,39.28c-21.18,0.87-51.68-6.14-66.83-5.12c-15.14,1.02-23.13,14.53-19.24,2.39
	c3.89-12.14,17.19-15.9,27.02-16.71s50.4,5.09,72.13-1.81c22.78-7.23,21.6-31.55,21.6-31.55c-3.89-1.84-40.32,0.2-40.32,0.2"/>
<path class="st1" d="M87.91,67.48c7.27-0.47,14.57-0.34,21.85-0.66c10.51-0.46,20.98-1.85,31.22-4.23
	c-2.5-5.66-25.93-57.71-39.99-53.4C83.1,14.66,73.58,28.28,57.91,46.22c-12.57,14.4-27.39,24.15-38.9,30.97
	c15.67-2.35,31.33-4.7,47-7.05C73.28,69.05,80.57,67.96,87.91,67.48z"/>
<path class="st2" d="M341.65,59.77c0,0-47.8-7.29-91.75-7.29c-46.76,0-108.7,10.6-108.7,10.6s-0.08-0.18-0.22-0.51
	c-10.24,2.38-20.71,3.78-31.22,4.23c-7.28,0.32-14.58,0.19-21.85,0.66c-7.34,0.48-14.63,1.57-21.91,2.66
	c-15.67,2.35-31.33,4.7-47,7.05C7.93,83.76-0.08,87.61,0,90.25c0.08,2.71,10.23,9.6,22.64,19.02c39.65,7.49,79.48,14,119.44,19.54
	c0.08-0.32,0.17-0.64,0.24-0.94c0,0,54.48,8.68,107.58,8.68c48.24,0,91.75-7.29,91.75-7.29C346.5,109.05,345.45,77.05,341.65,59.77z
	"/>
<path class="st1" d="M58.5,142.75c18.95,26.16,34.79,34.83,45.27,33.54c10.26-1.26,34.33-32.64,38.31-47.71
	c-39.97-5.54-79.8-12.05-119.44-19.54C34.88,118.33,49.34,130.1,58.5,142.75z"/>
<g>
	<circle class="st3" cx="358.7" cy="68.94" r="5.14"/>
	<circle class="st4" cx="358.7" cy="68.76" r="3.33"/>
	<circle class="st3" cx="359.72" cy="69.79" r="1.03"/>
</g>
<g>
	<circle class="st3" cx="358.7" cy="120.09" r="5.14"/>
	<circle class="st4" cx="358.7" cy="119.91" r="3.33"/>
	<circle class="st3" cx="359.72" cy="120.94" r="1.03"/>
</g>
</svg>
