<?xml version="1.0" encoding="utf-8"?>
<!-- Generator: Adobe Illustrator 26.1.0, SVG Export Plug-In . SVG Version: 6.00 Build 0)  -->
<svg version="1.1" id="レイヤー_1" xmlns="http://www.w3.org/2000/svg" xmlns:xlink="http://www.w3.org/1999/xlink" x="0px"
	 y="0px" viewBox="0 0 500 188.55" style="enable-background:new 0 0 500 188.55;" xml:space="preserve">
<style type="text/css">
	.st0{fill:#1E1E1E;}
	.st1{fill:#D3D3D1;}
	.st2{fill:#474747;}
	.st3{fill:#E2E2E0;}
	.st4{fill:#FFFFFF;}
	.st5{fill:#2D2D2D;}
	.st6{fill:#EEEEEE;}
	.st7{fill:#353535;}
</style>
<g>
	<path class="st0" d="M271.88,44.54C295.73,9,312.34-3.88,348.12,0.99c0,0,19.75,47.81-28.16,57.7l-39.11,9.23L271.88,44.54z"/>
	<path class="st1" d="M283.7,146.08c4.15,12.5,22.71,38.32,55.66,33.61c0,0,8.84-43.81-26.75-46.84"/>
	<path class="st2" d="M402.53,67.84c-0.81,0.33-1.25,0.52-1.25,0.52c-19.94,0-61.8-1-120.12-20.93
		c-58.31-19.94-150.52-14.95-193.38-5.48C52.22,49.79,22.49,66.57,13.4,81.16l0,0c-1.28,0.41-3.66,4.39,0.51,6.42l0,0
		c0.79,0.49,1.78,0.71,2.83,0.48c39.89-8.96,190.15-14.06,388.97-2.87C405.74,79.2,404.86,73.23,402.53,67.84z"/>
	<path class="st3" d="M16.72,88.06L16.72,88.06c-5.97,0.64-7.85,4.29-6.13,6.96c0.61,18.27,6.18,52.45,55.75,60.56
		c0,0,7.97,13.96,30.9,17.94c22.93,3.99,107.66,14.45,166.97-13.46c59.31-27.91,115.13-51.34,137.06-51.34c0,0,0.05,0.02,0.12,0.05
		c2.35-6.79,4.25-15.2,4.3-23.6C206.84,73.99,56.58,79.1,16.72,88.06z"/>
	<g>
		<circle class="st4" cx="75.15" cy="64.6" r="9.1"/>
		<circle class="st5" cx="75.15" cy="64.28" r="5.9"/>
		<circle class="st4" cx="76.97" cy="66.1" r="1.82"/>
	</g>
	<g>
		<path class="st0" d="M427.71,73.55c-0.09,0.03-0.19,0.04-0.28,0.04c-0.45,0-0.86-0.3-0.99-0.75c-0.15-0.55,0.17-1.11,0.71-1.26
			c19.91-5.57,40.38-8.89,61.01-9.92c-1.81-7.92-5.04-13.47-10.14-14.23c-18.19-2.73-67.09,16.95-75.51,20.42
			c5.61,12.97,2.9,29.32-1.13,40.94c2.94,1.3,65.44,28.73,76.64,23.37c2.41-1.15,4.69-5.45,6.6-11.53
			c-19.93-3.59-40.02-8.04-58.67-16.51c-0.52-0.23-0.74-0.84-0.51-1.36c0.23-0.51,0.84-0.74,1.36-0.51
			c18.52,8.41,38.54,12.83,58.42,16.4c1.52-5.34,2.76-11.81,3.6-18.66c-19.01-1.4-38.21-3.11-57.13-5.1
			c-0.56-0.06-0.97-0.56-0.91-1.13c0.06-0.56,0.57-0.96,1.13-0.91c18.93,1.99,38.14,3.69,57.15,5.1c0.6-5.48,0.94-11.13,0.95-16.6
			c-20.29-1.03-40.64,0.34-60.63,4.1c-0.06,0.01-0.13,0.02-0.19,0.02c-0.48,0-0.91-0.34-1.01-0.84c-0.11-0.56,0.26-1.09,0.82-1.2
			c20.1-3.78,40.58-5.17,60.99-4.14c-0.08-5.61-0.53-10.95-1.41-15.6C468.01,64.7,447.58,68,427.71,73.55z"/>
		<path class="st3" d="M426.45,72.84c0.13,0.45,0.54,0.75,0.99,0.75c0.09,0,0.19-0.01,0.28-0.04c19.87-5.56,40.29-8.86,60.88-9.86
			c-0.13-0.69-0.27-1.37-0.42-2.03c-20.63,1.03-41.1,4.35-61.01,9.92C426.62,71.73,426.3,72.29,426.45,72.84z"/>
		<path class="st3" d="M429.01,83.43c-0.56,0.1-0.92,0.64-0.82,1.2c0.09,0.49,0.52,0.84,1.01,0.84c0.06,0,0.13-0.01,0.19-0.02
			c19.99-3.76,40.34-5.13,60.63-4.1c0-0.69,0-1.37-0.01-2.05C469.59,78.26,449.11,79.65,429.01,83.43z"/>
		<path class="st3" d="M430.78,93.76c-0.06,0.56,0.35,1.07,0.91,1.13c18.93,1.99,38.12,3.69,57.13,5.1
			c0.08-0.68,0.16-1.36,0.24-2.04c-19.02-1.4-38.22-3.11-57.15-5.1C431.36,92.8,430.84,93.2,430.78,93.76z"/>
		<path class="st3" d="M425.45,102.75c-0.23,0.52-0.01,1.12,0.51,1.36c18.66,8.47,38.75,12.92,58.67,16.51
			c0.2-0.64,0.4-1.3,0.59-1.98c-19.88-3.57-39.9-7.99-58.42-16.4C426.29,102.01,425.68,102.24,425.45,102.75z"/>
	</g>
	<g>
		<path class="st0" d="M159.98,57.87c0.64-3.45,3.35-6.16,6.27-8.11c7.28-4.88,16.73-6.38,25.16-4c4.53,1.28,8.96,3.83,11.22,7.96
			c0.99,1.82,1.52,3.84,2.37,5.73c1.05,2.35,2.58,4.46,3.73,6.77c3.23,6.49,2.83,15.3-2.68,20.02c-2.57,2.2-5.91,3.29-9.23,3.98
			c-7.07,1.48-14.58,1.37-21.37-1.1s-12.78-7.47-15.74-14.06c-2.96-6.59-2.59-14.76,1.6-20.65"/>
		<g>
			<path class="st6" d="M161.46,58.28c1.02-4.86,5.99-7.93,10.24-9.74c4.66-1.99,9.84-2.72,14.88-2.17
				c4.74,0.52,9.79,2.26,13.09,5.84c1.81,1.96,2.53,4.42,3.51,6.84c1.07,2.67,2.7,5.01,4.02,7.55c1.98,3.81,2.63,8.42,1.48,12.58
				c-1.3,4.71-4.93,7.52-9.49,8.87c-10.11,3.01-22.07,2.1-30.64-4.42c-4.19-3.19-7.42-7.67-8.66-12.82
				c-1.28-5.35-0.4-11.08,2.76-15.61c1.13-1.63-1.53-3.17-2.66-1.55c-6.52,9.38-3.98,22.16,3.83,29.92
				c8.69,8.62,21.57,10.57,33.2,8.2c5.34-1.09,10.63-3.38,13.3-8.42c2.31-4.34,2.51-9.61,1.16-14.28c-0.79-2.74-2.24-5.12-3.66-7.56
				c-1.62-2.78-2.36-5.93-3.94-8.71c-2.72-4.8-8.03-7.58-13.24-8.81c-6.25-1.48-12.97-1.02-18.97,1.29
				c-5.49,2.12-11.86,5.99-13.16,12.2C158.09,59.39,161.06,60.22,161.46,58.28L161.46,58.28z"/>
		</g>
	</g>
	<g>
		<path class="st7" d="M258.73,71.24c-3.4-2.45-8.44-2.82-12.14-0.79c-0.04,0-0.08,0-0.13,0.01c-3.56,0.98-3.73,6.11-3.2,9.05
			c0.35,1.96,1.37,3.63,3.05,4.72c1.79,1.16,4.08,1.77,6.19,2c3.93,0.43,8.28-1.22,9.64-5.21
			C263.38,77.39,261.75,73.41,258.73,71.24z"/>
		<path class="st7" d="M291.62,68.32c-2.44,0.09-4.97,0.87-7.1,2.05c-0.27,0.15-0.52,0.32-0.77,0.51c-0.32-0.31-0.91-0.39-1.21,0.12
			c-1.84,3.09-0.84,7.09,1.61,9.55c2.84,2.84,7.22,3.33,11,2.71c1.88-0.31,3.77-0.92,4.53-2.84c0.34-0.86,0.44-1.8,0.56-2.72
			c0.15-1.15,0.24-2.29,0.03-3.44C299.53,70.3,295.34,68.19,291.62,68.32z"/>
		<path class="st7" d="M322.64,76.35c-1.43-0.29-2.97-0.09-4.09,0.91c-0.62,0.56-1.05,1.35-1.16,2.18
			c-1.74,1.46-2.39,4.03-0.71,5.85c1.62,1.76,4.58,2.08,6.75,1.35c2.31-0.79,4.12-3.01,3.9-5.53
			C327.11,78.65,324.96,76.82,322.64,76.35z"/>
		<path class="st7" d="M275.85,65.83c1.3-1.72,1-4.19-0.36-5.78c-1.68-1.97-4.86-2.03-6.89-0.6c0,0,0,0,0,0
			c-0.03,0.01-0.06,0-0.09,0.01c-1.85,0.52-2.89,2.51-2.69,4.35c0.22,2.12,1.93,3.64,3.97,4.04
			C271.95,68.29,274.48,67.64,275.85,65.83z"/>
		<path class="st7" d="M273.9,82.12c-0.65-0.07-1.33,0.21-1.8,0.67c-0.63,0.61-1.06,1.51-1.37,2.31c-0.33,0.87-0.39,1.91,0.16,2.71
			c0.48,0.69,1.26,1.12,2.08,1.27c1.68,0.31,3.49-0.22,4.54-1.61c0.99-1.31,0.99-3.25-0.07-4.52
			C276.59,81.95,275.09,81.65,273.9,82.12z"/>
		<path class="st7" d="M345.26,74.56c-2.17-1.55-5.37-1.79-7.74-0.52c-0.04,0.01-0.07,0-0.11,0.01c-2.39,0.66-2.55,3.99-2.19,5.98
			c0.23,1.29,0.93,2.39,2.03,3.11c1.16,0.75,2.64,1.14,4,1.28c2.58,0.28,5.39-0.85,6.28-3.45
			C348.33,78.59,347.24,75.99,345.26,74.56z"/>
		<path class="st7" d="M361.47,73.32c-0.84-1-2.35-1.29-3.54-0.83c-0.65-0.07-1.33,0.21-1.8,0.67c-0.63,0.61-1.06,1.51-1.37,2.31
			c-0.33,0.87-0.39,1.91,0.16,2.71c0.48,0.69,1.26,1.12,2.08,1.27c1.68,0.31,3.49-0.22,4.54-1.61
			C362.53,76.52,362.53,74.58,361.47,73.32z"/>
		<path class="st7" d="M315.09,68.2c-0.84-1-2.35-1.29-3.54-0.83c-0.65-0.07-1.33,0.21-1.8,0.67c-0.63,0.61-1.06,1.51-1.37,2.31
			c-0.33,0.87-0.39,1.91,0.16,2.71c0.48,0.69,1.26,1.12,2.08,1.27c1.68,0.31,3.49-0.22,4.54-1.61
			C316.15,71.4,316.16,69.46,315.09,68.2z"/>
		<path class="st7" d="M229.82,58.62c-0.01,0.01-0.01,0.01-0.02,0.02c-0.05,0-0.1,0-0.15,0.01c-2.27,0.64-3.51,3.07-3.27,5.33
			c0.27,2.6,2.4,4.44,4.89,4.93c2.65,0.52,5.77-0.27,7.46-2.48c1.6-2.09,1.24-5.14-0.42-7.08
			C236.23,56.92,232.33,56.85,229.82,58.62z"/>
	</g>
	<g>
		<path class="st7" d="M92.29,82.41c1.61-0.21,3.23-0.89,4.56-1.81c0.17-0.11,0.33-0.24,0.48-0.39c0.23,0.19,0.62,0.2,0.79-0.15
			c1.02-2.16,0.1-4.74-1.67-6.21c-2.06-1.7-4.98-1.74-7.44-1.09c-1.22,0.32-2.43,0.85-2.81,2.16c-0.17,0.59-0.17,1.22-0.2,1.83
			c-0.03,0.77-0.02,1.53,0.2,2.27C86.94,81.6,89.84,82.73,92.29,82.41z"/>
		<path class="st7" d="M127.46,63.03c1.61-0.21,3.23-0.89,4.56-1.81c0.17-0.11,0.33-0.24,0.48-0.39c0.23,0.19,0.62,0.2,0.79-0.15
			c1.02-2.16,0.1-4.74-1.67-6.21c-2.06-1.7-4.98-1.74-7.44-1.09c-1.22,0.32-2.43,0.85-2.81,2.16c-0.17,0.59-0.17,1.22-0.2,1.83
			c-0.03,0.77-0.02,1.53,0.2,2.27C122.1,62.22,125.01,63.35,127.46,63.03z"/>
		<path class="st7" d="M61.55,84.23c1.07,0.11,2.2-0.14,2.95-0.96c0.42-0.46,0.67-1.07,0.7-1.69c1.18-1.2,1.47-3.14,0.11-4.36
			c-1.32-1.18-3.52-1.21-5.07-0.51c-1.65,0.74-2.82,2.51-2.48,4.36C58.09,82.85,59.81,84.05,61.55,84.23z"/>
		<path class="st7" d="M100.53,67.68c0.5,0,1.01-0.26,1.33-0.65c0.44-0.51,0.71-1.24,0.88-1.88c0.19-0.69,0.16-1.5-0.32-2.07
			c-0.42-0.5-1.05-0.77-1.69-0.82c-1.31-0.12-2.67,0.43-3.37,1.58c-0.66,1.08-0.52,2.57,0.39,3.46
			C98.48,68.01,99.65,68.13,100.53,67.68z"/>
		<path class="st7" d="M46.72,74.6c1.56,0.91,3.73,0.85,5.24-0.15c0.03-0.01,0.05,0,0.08-0.01c1.57-0.6,1.46-2.85,1.09-4.17
			c-0.24-0.85-0.78-1.55-1.57-1.96c-0.83-0.43-1.85-0.59-2.77-0.6c-1.76-0.02-3.57,0.92-4,2.73C44.39,72.09,45.29,73.78,46.72,74.6z
			"/>
		<path class="st7" d="M35.53,87.63c0.94,0.91,2.46,1.06,3.6,0.48c0.65,0,1.3-0.34,1.72-0.84c0.57-0.66,0.91-1.6,1.14-2.43
			c0.24-0.89,0.2-1.94-0.42-2.68c-0.54-0.64-1.36-0.99-2.19-1.07c-1.7-0.15-3.46,0.56-4.36,2.04
			C34.16,84.54,34.34,86.48,35.53,87.63z"/>
		<path class="st7" d="M110.64,70.78c0.94,0.91,2.46,1.06,3.6,0.48c0.65,0,1.3-0.34,1.72-0.84c0.57-0.66,0.91-1.6,1.14-2.43
			c0.24-0.89,0.21-1.94-0.42-2.68c-0.54-0.64-1.36-0.99-2.19-1.07c-1.7-0.15-3.46,0.56-4.36,2.04
			C109.27,67.69,109.45,69.63,110.64,70.78z"/>
	</g>
	<path class="st7" d="M175.47,73.7c-2.05-33.93-49.64-2.94-57.19,2.2c7.35,3.04,12.82,14.28,12.82,27.73
		c0,4.67-0.67,9.07-1.84,12.96C170.68,132.82,177.69,110.54,175.47,73.7z"/>
</g>
</svg>
