<?xml version="1.0" encoding="utf-8"?>
<!-- Generator: Adobe Illustrator 26.1.0, SVG Export Plug-In . SVG Version: 6.00 Build 0)  -->
<svg version="1.1" id="レイヤー_1" xmlns="http://www.w3.org/2000/svg" xmlns:xlink="http://www.w3.org/1999/xlink" x="0px"
	 y="0px" viewBox="0 0 500 188.55" style="enable-background:new 0 0 500 188.55;" xml:space="preserve">
<style type="text/css">
	.st0{fill:#897960;}
	.st1{fill:#AF987B;}
	.st2{fill:#77654D;}
	.st3{fill:#FFFFFF;}
</style>
<g>
	<path class="st0" d="M342.9,3.78c1.31,2.92,2.48,5.9,3.51,8.92c0.18,0.52-0.1,1.09-0.63,1.27c-0.11,0.04-0.21,0.05-0.32,0.05
		c-0.42,0-0.81-0.26-0.95-0.68c-1.19-3.51-2.58-6.94-4.15-10.3c-3.64-1-7.35-1.82-11.11-2.44c2,4.24,3.89,8.54,5.62,12.87
		c0.21,0.51-0.04,1.09-0.55,1.3c-0.12,0.05-0.25,0.07-0.37,0.07c-0.4,0-0.77-0.24-0.93-0.63c-1.89-4.71-3.97-9.37-6.17-13.97
		c-3.78-0.53-7.61-0.83-11.48-0.9c2.6,4.92,4.82,10.05,6.6,15.33c0.18,0.52-0.1,1.09-0.63,1.27c-0.11,0.04-0.21,0.05-0.32,0.05
		c-0.42,0-0.81-0.26-0.95-0.68c-1.87-5.52-4.22-10.87-7-15.98c-0.7,0.01-1.39,0.01-2.09,0.03c-2.83,0.09-5.78,0.26-8.82,0.48
		c2.21,4.5,4.31,9.05,6.27,13.63c0.22,0.51-0.02,1.1-0.53,1.31c-0.13,0.05-0.26,0.08-0.39,0.08c-0.39,0-0.76-0.23-0.92-0.61
		c-2.05-4.79-4.26-9.55-6.59-14.25c-4.5,0.36-9.18,0.86-13.95,1.46c2.65,5.24,5.14,10.57,7.41,15.96c0.21,0.51-0.02,1.1-0.53,1.31
		c-0.13,0.05-0.26,0.08-0.39,0.08c-0.39,0-0.76-0.23-0.92-0.61c-2.34-5.56-4.92-11.06-7.67-16.47c-2.99,0.39-6.01,0.83-9.04,1.3
		c3.1,4.8,5.76,9.89,7.91,15.21c0.21,0.51-0.04,1.09-0.55,1.3c-0.12,0.05-0.25,0.07-0.38,0.07c-0.4,0-0.77-0.24-0.93-0.63
		c-2.22-5.48-4.98-10.7-8.23-15.61c-3.08,0.49-6.16,1.02-9.22,1.58l8.4,13.85c0.29,0.47,0.13,1.09-0.34,1.37
		c-0.16,0.1-0.34,0.15-0.52,0.15c-0.34,0-0.67-0.17-0.86-0.48l-8.79-14.5c-4.69,0.88-9.32,1.83-13.81,2.82
		c4.11,4.75,8.14,9.57,12.04,14.46c0.34,0.43,0.27,1.06-0.16,1.41c-0.18,0.15-0.4,0.22-0.62,0.22c-0.29,0-0.58-0.13-0.78-0.38
		c-4.1-5.14-8.36-10.22-12.69-15.21c-3.03,0.69-5.97,1.4-8.83,2.13l10.76,14.74c0.33,0.45,0.23,1.07-0.22,1.4
		c-0.18,0.13-0.38,0.19-0.59,0.19c-0.31,0-0.61-0.14-0.81-0.41l-11.22-15.38c-4.59,1.2-8.9,2.44-12.8,3.69
		c4.89,3.86,9.33,8.32,13.11,13.2c0.34,0.44,0.26,1.06-0.18,1.4c-0.18,0.14-0.4,0.21-0.61,0.21c-0.3,0-0.59-0.13-0.79-0.39
		c-3.95-5.1-8.65-9.73-13.83-13.67c-3.55,1.19-6.73,2.38-9.41,3.55c-1.16,0.51-2.29,1.03-3.41,1.56c4.53,3.74,8.74,7.87,12.55,12.35
		c0.36,0.42,0.31,1.05-0.11,1.41c-0.19,0.16-0.42,0.24-0.65,0.24c-0.28,0-0.56-0.12-0.76-0.35c-3.93-4.62-8.29-8.87-13-12.68
		c-3.38,1.67-6.61,3.44-9.69,5.29c3.63,2.56,7.12,5.32,10.42,8.28c0.41,0.37,0.45,1,0.08,1.41c-0.2,0.22-0.47,0.33-0.75,0.33
		c-0.24,0-0.48-0.08-0.67-0.25c-3.46-3.1-7.13-5.98-10.96-8.63c-2.84,1.77-5.55,3.6-8.14,5.47c3.6,2.4,7.11,4.92,10.52,7.56
		c0.44,0.34,0.52,0.97,0.18,1.4c-0.2,0.25-0.49,0.39-0.79,0.39c-0.21,0-0.43-0.07-0.61-0.21c-3.56-2.76-7.24-5.39-11.02-7.89
		c-2.47,1.83-4.83,3.69-7.07,5.55c2.59,1.86,5.15,3.76,7.64,5.73c0.43,0.34,0.51,0.97,0.17,1.4c-0.2,0.25-0.49,0.38-0.79,0.38
		c-0.22,0-0.43-0.07-0.62-0.21c-2.6-2.05-5.28-4.03-7.98-5.97c-17.33,14.69-28.06,29.27-35.56,32.13
		c-11.67,4.44,255.62-42.74,255.62-42.74C380.59,20.75,362.79,9.73,342.9,3.78z"/>
	<g>
		<path class="st1" d="M345.46,14.02c0.11,0,0.21-0.02,0.32-0.05c0.52-0.18,0.8-0.75,0.63-1.27c-1.03-3.03-2.2-6.01-3.51-8.92
			c-0.84-0.25-1.69-0.5-2.54-0.73c1.57,3.35,2.96,6.79,4.15,10.3C344.66,13.76,345.04,14.02,345.46,14.02z"/>
		<path class="st1" d="M333.95,14.84c0.12,0,0.25-0.02,0.37-0.07c0.51-0.21,0.76-0.79,0.55-1.3c-1.74-4.33-3.62-8.63-5.62-12.87
			c-0.8-0.13-1.6-0.25-2.4-0.36c2.2,4.6,4.28,9.26,6.17,13.97C333.18,14.61,333.55,14.84,333.95,14.84z"/>
		<path class="st1" d="M321.03,16.01c0.11,0,0.21-0.02,0.32-0.05c0.52-0.18,0.8-0.74,0.63-1.27c-1.79-5.28-4-10.41-6.6-15.33
			c-0.76-0.01-1.52-0.02-2.29-0.01c2.78,5.12,5.13,10.46,7,15.98C320.22,15.74,320.61,16.01,321.03,16.01z"/>
		<path class="st1" d="M307.52,14.88c0.13,0,0.27-0.03,0.39-0.08c0.51-0.22,0.74-0.81,0.53-1.31c-1.96-4.58-4.06-9.14-6.27-13.63
			c-0.71,0.05-1.43,0.11-2.16,0.17c2.33,4.7,4.54,9.46,6.59,14.25C306.77,14.65,307.14,14.88,307.52,14.88z"/>
		<path class="st1" d="M292.55,18.82c0.13,0,0.26-0.03,0.39-0.08c0.51-0.21,0.75-0.8,0.53-1.31c-2.27-5.39-4.76-10.72-7.41-15.96
			c-0.7,0.09-1.4,0.18-2.11,0.27c2.75,5.4,5.33,10.9,7.67,16.47C291.79,18.59,292.16,18.82,292.55,18.82z"/>
		<path class="st1" d="M281.9,19.62c0.12,0,0.25-0.02,0.38-0.07c0.51-0.21,0.76-0.79,0.55-1.3c-2.15-5.32-4.8-10.4-7.91-15.21
			c-0.72,0.11-1.45,0.23-2.17,0.34c3.25,4.91,6.01,10.14,8.23,15.61C281.13,19.39,281.5,19.62,281.9,19.62z"/>
		<path class="st1" d="M271.06,20.33c0.18,0,0.36-0.05,0.52-0.15c0.47-0.29,0.62-0.9,0.34-1.37l-8.4-13.85
			c-0.7,0.13-1.4,0.26-2.1,0.39l8.79,14.5C270.4,20.16,270.73,20.33,271.06,20.33z"/>
		<path class="st1" d="M258.87,24.25c0.22,0,0.44-0.07,0.62-0.22c0.43-0.34,0.5-0.97,0.16-1.41c-3.9-4.88-7.93-9.71-12.04-14.46
			c-0.74,0.16-1.48,0.33-2.22,0.5c4.34,4.99,8.59,10.07,12.69,15.21C258.29,24.12,258.58,24.25,258.87,24.25z"/>
		<path class="st1" d="M246.52,27.13c0.2,0,0.41-0.06,0.59-0.19c0.45-0.33,0.54-0.95,0.22-1.4L236.57,10.8
			c-0.7,0.18-1.39,0.36-2.08,0.54l11.22,15.38C245.91,26.99,246.21,27.13,246.52,27.13z"/>
		<path class="st1" d="M233.21,29.45c0.2,0.25,0.49,0.39,0.79,0.39c0.21,0,0.43-0.07,0.61-0.21c0.44-0.34,0.52-0.97,0.18-1.4
			c-3.77-4.88-8.22-9.34-13.11-13.2c-0.79,0.25-1.55,0.5-2.3,0.75C224.56,19.72,229.26,24.35,233.21,29.45z"/>
		<path class="st1" d="M217.58,34.54c0.2,0.23,0.48,0.35,0.76,0.35c0.23,0,0.46-0.08,0.65-0.24c0.42-0.36,0.47-0.99,0.11-1.41
			c-3.81-4.48-8.02-8.61-12.55-12.35c-0.67,0.32-1.32,0.64-1.98,0.97C209.29,25.67,213.65,29.92,217.58,34.54z"/>
		<path class="st1" d="M204.65,37.18c0.27,0,0.55-0.11,0.75-0.33c0.37-0.41,0.33-1.04-0.08-1.41c-3.31-2.96-6.79-5.72-10.42-8.28
			c-0.63,0.38-1.26,0.75-1.87,1.14c3.83,2.65,7.5,5.53,10.96,8.63C204.17,37.09,204.41,37.18,204.65,37.18z"/>
		<path class="st1" d="M194.78,43.1c0.3,0,0.59-0.13,0.79-0.39c0.34-0.44,0.26-1.06-0.18-1.4c-3.41-2.64-6.92-5.16-10.52-7.56
			c-0.58,0.42-1.16,0.83-1.72,1.25c3.77,2.5,7.45,5.13,11.02,7.89C194.36,43.03,194.57,43.1,194.78,43.1z"/>
		<path class="st1" d="M183.11,48.07c0.3,0,0.59-0.13,0.79-0.38c0.34-0.43,0.27-1.06-0.17-1.4c-2.49-1.96-5.05-3.86-7.64-5.73
			c-0.53,0.44-1.06,0.88-1.58,1.33c2.71,1.94,5.38,3.92,7.98,5.97C182.67,48,182.89,48.07,183.11,48.07z"/>
	</g>
	<path class="st0" d="M366.17,165.3c0.5,0.22,0.73,0.82,0.51,1.32l-3.44,7.73c13.48-7.88,26.21-18,36.44-26.26l-261.1-31.75
		c0,0,16.41,14.49,39.21,30.05c1.02-1.72,1.97-3.47,2.86-5.27c0.25-0.49,0.84-0.7,1.34-0.45c0.49,0.25,0.7,0.85,0.45,1.34
		c-0.93,1.87-1.93,3.71-2.99,5.5c3.32,2.24,6.77,4.5,10.31,6.73c1.79-3.23,3.47-6.53,5-9.9c0.23-0.5,0.82-0.73,1.32-0.5
		c0.5,0.23,0.73,0.82,0.5,1.32c-1.56,3.45-3.28,6.83-5.12,10.14c3.12,1.94,6.32,3.86,9.56,5.73c1.74-3.3,3.25-6.73,4.52-10.28
		c0.19-0.52,0.76-0.79,1.28-0.6c0.52,0.19,0.79,0.76,0.6,1.28c-1.31,3.66-2.87,7.19-4.67,10.6c2.61,1.48,5.26,2.93,7.92,4.33
		c2.62-4.24,4.89-8.69,6.78-13.34c0.21-0.51,0.79-0.76,1.3-0.55c0.51,0.21,0.76,0.79,0.55,1.3c-1.92,4.71-4.21,9.22-6.86,13.51
		c2.98,1.53,5.99,3.01,9,4.39c0.2,0.09,0.41,0.18,0.61,0.27c2.57-4.63,4.87-9.41,6.86-14.34c0.21-0.51,0.79-0.76,1.3-0.55
		c0.51,0.21,0.76,0.79,0.55,1.3c-2,4.94-4.31,9.75-6.88,14.4c2.08,0.89,4.26,1.74,6.53,2.55c2.7-4.49,5.06-9.18,7.02-14.1
		c0.21-0.51,0.79-0.76,1.3-0.56c0.51,0.2,0.76,0.79,0.56,1.3c-1.95,4.88-4.28,9.56-6.95,14.02c2.89,0.98,5.88,1.91,8.98,2.77
		c3.21-5.57,5.9-11.44,7.98-17.46c0.18-0.52,0.75-0.8,1.27-0.62c0.52,0.18,0.8,0.75,0.62,1.27c-2.06,5.98-4.72,11.8-7.87,17.34
		c2.59,0.69,5.24,1.33,7.92,1.93c3.21-5.39,6.27-10.86,9.16-16.39c0.26-0.49,0.86-0.68,1.35-0.42c0.49,0.26,0.68,0.86,0.42,1.35
		c-2.8,5.37-5.77,10.68-8.87,15.91c3.67,0.79,7.4,1.5,11.17,2.13c2.59-5.21,4.84-10.58,6.72-16.12c0.18-0.52,0.75-0.8,1.27-0.63
		c0.52,0.18,0.8,0.75,0.63,1.27c-1.84,5.43-4.04,10.7-6.55,15.81c3.94,0.63,7.9,1.18,11.83,1.65c2.15-5.1,4.2-10.23,6.11-15.39
		c0.19-0.52,0.77-0.78,1.29-0.59c0.52,0.19,0.78,0.77,0.59,1.29c-1.86,5-3.85,9.98-5.92,14.93c3.82,0.43,7.61,0.79,11.32,1.07
		c2.23-5.16,4.24-10.41,6.02-15.72c0.17-0.52,0.74-0.81,1.26-0.63c0.52,0.17,0.81,0.74,0.63,1.27c-1.72,5.15-3.66,10.23-5.8,15.24
		c3.56,0.24,7.03,0.42,10.39,0.52c2.42-5.56,4.68-11.2,6.75-16.87c0.19-0.52,0.76-0.79,1.28-0.6c0.52,0.19,0.79,0.76,0.6,1.28
		c-1.99,5.46-4.16,10.88-6.48,16.25c3.84,0.09,7.49,0.08,10.92-0.01c2.69-5.48,5.26-11.02,7.66-16.59c0.22-0.51,0.81-0.74,1.31-0.52
		c0.51,0.22,0.74,0.81,0.52,1.31c-2.28,5.28-4.7,10.53-7.24,15.72c4.74-0.19,8.98-0.56,12.51-1.11c0.16-0.03,0.33-0.06,0.49-0.09
		c2.32-5.04,4.54-10.14,6.63-15.25c0.21-0.51,0.79-0.76,1.3-0.55s0.76,0.79,0.55,1.3c-1.92,4.71-3.96,9.39-6.08,14.04
		c3.84-0.8,7.72-2.01,11.6-3.52c1.75-4.32,3.42-8.67,4.95-13.04c0.18-0.52,0.75-0.79,1.27-0.61c0.52,0.18,0.79,0.75,0.61,1.27
		c-1.33,3.8-2.77,7.57-4.27,11.33c3.73-1.59,7.46-3.44,11.14-5.48l4.54-10.21C365.07,165.3,365.66,165.07,366.17,165.3z"/>
	<g>
		<path class="st1" d="M366.67,166.62c0.22-0.5,0-1.1-0.51-1.32c-0.5-0.23-1.09,0-1.32,0.51l-4.54,10.21
			c0.98-0.54,1.96-1.1,2.93-1.67L366.67,166.62z"/>
		<path class="st1" d="M352.82,168.89c-0.52-0.18-1.09,0.09-1.27,0.61c-1.53,4.37-3.2,8.72-4.95,13.04
			c0.86-0.33,1.71-0.68,2.57-1.05c1.49-3.76,2.94-7.53,4.27-11.33C353.62,169.65,353.34,169.08,352.82,168.89z"/>
		<path class="st1" d="M340.53,170.72c-0.51-0.21-1.09,0.04-1.3,0.55c-2.09,5.11-4.31,10.2-6.63,15.25c0.8-0.13,1.59-0.28,2.39-0.45
			c2.12-4.65,4.16-9.34,6.08-14.04C341.29,171.52,341.05,170.93,340.53,170.72z"/>
		<path class="st1" d="M326.32,170.69c-0.5-0.22-1.1,0.01-1.31,0.52c-2.41,5.57-4.97,11.11-7.66,16.59
			c0.77-0.02,1.52-0.05,2.26-0.08c2.54-5.19,4.96-10.44,7.24-15.72C327.06,171.49,326.83,170.9,326.32,170.69z"/>
		<path class="st1" d="M312.31,170.28c-0.52-0.19-1.09,0.08-1.28,0.6c-2.07,5.67-4.33,11.31-6.75,16.87
			c0.72,0.02,1.44,0.04,2.15,0.06c2.32-5.36,4.49-10.78,6.48-16.25C313.1,171.05,312.83,170.47,312.31,170.28z"/>
		<path class="st1" d="M299.06,170.73c-0.52-0.17-1.09,0.11-1.26,0.63c-1.77,5.31-3.79,10.56-6.02,15.72
			c0.71,0.05,1.41,0.1,2.11,0.15c2.14-5,4.09-10.09,5.8-15.24C299.86,171.47,299.58,170.9,299.06,170.73z"/>
		<path class="st1" d="M285.79,169.79c-0.52-0.19-1.09,0.07-1.29,0.59c-1.92,5.15-3.96,10.29-6.11,15.39
			c0.69,0.08,1.38,0.16,2.06,0.24c2.08-4.95,4.07-9.93,5.92-14.93C286.57,170.56,286.31,169.99,285.79,169.79z"/>
		<path class="st1" d="M272.48,167.03c-0.52-0.18-1.09,0.1-1.27,0.63c-1.88,5.54-4.14,10.91-6.72,16.12
			c0.69,0.12,1.38,0.23,2.07,0.34c2.51-5.12,4.71-10.39,6.55-15.81C273.29,167.78,273.01,167.21,272.48,167.03z"/>
		<path class="st1" d="M261.78,164.38c-0.49-0.25-1.09-0.07-1.35,0.42c-2.89,5.53-5.95,11-9.16,16.39c0.68,0.15,1.37,0.3,2.06,0.45
			c3.1-5.23,6.07-10.54,8.87-15.91C262.46,165.24,262.27,164.64,261.78,164.38z"/>
		<path class="st1" d="M250.6,160.65c-0.52-0.18-1.09,0.1-1.27,0.62c-2.08,6.03-4.77,11.89-7.98,17.46c0.66,0.18,1.33,0.36,2,0.53
			c3.16-5.54,5.81-11.37,7.87-17.34C251.39,161.4,251.12,160.83,250.6,160.65z"/>
		<path class="st1" d="M238.75,160.64c-0.51-0.21-1.09,0.04-1.3,0.56c-1.96,4.91-4.32,9.61-7.02,14.1c0.64,0.23,1.28,0.45,1.93,0.67
			c2.67-4.47,5-9.14,6.95-14.02C239.52,161.43,239.27,160.85,238.75,160.64z"/>
		<path class="st1" d="M230.23,157.05c-0.51-0.21-1.09,0.04-1.3,0.55c-1.99,4.93-4.3,9.71-6.86,14.34c0.6,0.27,1.22,0.54,1.84,0.81
			c2.57-4.65,4.88-9.45,6.88-14.4C230.99,157.84,230.74,157.26,230.23,157.05z"/>
		<path class="st1" d="M218.76,152.46c-0.51-0.21-1.09,0.04-1.3,0.55c-1.89,4.65-4.16,9.1-6.78,13.34c0.59,0.31,1.18,0.62,1.78,0.92
			c2.64-4.3,4.94-8.8,6.86-13.51C219.51,153.25,219.27,152.67,218.76,152.46z"/>
		<path class="st1" d="M206.81,150.15c-0.52-0.19-1.09,0.08-1.28,0.6c-1.27,3.55-2.78,6.97-4.52,10.28
			c0.58,0.33,1.16,0.66,1.74,0.99c1.79-3.4,3.36-6.94,4.67-10.6C207.6,150.91,207.33,150.34,206.81,150.15z"/>
		<path class="st1" d="M196.08,143.84c-0.5-0.23-1.1,0-1.32,0.5c-1.53,3.37-3.2,6.67-5,9.9c0.56,0.35,1.13,0.71,1.7,1.06
			c1.84-3.31,3.55-6.69,5.12-10.14C196.8,144.66,196.58,144.07,196.08,143.84z"/>
		<path class="st1" d="M181.99,140.67c-0.5-0.25-1.09-0.04-1.34,0.45c-0.89,1.79-1.85,3.55-2.86,5.27c0.55,0.37,1.1,0.75,1.66,1.13
			c1.06-1.79,2.06-3.63,2.99-5.5C182.68,141.52,182.48,140.92,181.99,140.67z"/>
	</g>
	<path class="st0" d="M116.84,79.63c-14.43-1.37-30.03-13.19-44.45-16.55c-3.77-0.88-7.75,3.51-11.08,9.49
		c1.13,0.27,2.26,0.55,3.38,0.81c10.63,2.54,21.62,5.17,31.42,10.48c0.49,0.26,0.67,0.87,0.4,1.36c-0.18,0.33-0.52,0.52-0.88,0.52
		c-0.16,0-0.32-0.04-0.48-0.12c-9.56-5.18-20.42-7.78-30.93-10.3c-1.29-0.31-2.59-0.62-3.89-0.94c-1.76,3.45-3.28,7.27-4.45,10.86
		c10.47,1.03,20.84,2.94,31.02,5.72c0.53,0.15,0.85,0.7,0.7,1.23c-0.12,0.44-0.52,0.74-0.96,0.74c-0.09,0-0.18-0.01-0.26-0.04
		c-10.2-2.78-20.61-4.68-31.1-5.7c-1.12,3.8-1.77,7.19-1.77,9.39c0,2.64,0.52,5.82,1.4,9.16c4.64-0.49,9.26-1.21,13.81-1.93
		c6.28-0.98,12.76-2,19.2-2.4c0.54-0.04,1.03,0.39,1.06,0.94c0.03,0.55-0.39,1.03-0.94,1.06c-6.34,0.39-12.78,1.4-19.01,2.38
		c-4.47,0.7-9.01,1.4-13.57,1.9c1.16,3.85,2.75,7.83,4.58,11.42c11.76-3.36,23.56-6.81,35.22-10.32c0.53-0.16,1.09,0.14,1.25,0.67
		c0.16,0.53-0.14,1.09-0.67,1.25c-11.54,3.46-23.21,6.88-34.84,10.21c3.72,6.75,8.19,11.64,11.84,10.73
		c15.72-3.92,30.47-13.85,43.49-17.32C112.03,102.16,113.14,90.86,116.84,79.63z"/>
	<path class="st2" d="M449.49,107.64c-6.23-2.05-7.41-1.74-7.41-1.74c8.32-6.86,16.78-12.07-1.47-33.58
		c-18.25-21.51-46.01-56.66-105.8-52.68c-59.79,3.98-79.59,9.29-102.44,15.48c-22.85,6.19-68.42,30.06-105.1,43.33
		c-3.38,1.22-6.88,1.51-10.44,1.18c-3.7,11.23-4.81,22.53-0.53,34.7c4.76-1.27,9.3-1.68,13.56-0.61
		c28.72,7.24,158.5,64.63,231.74,47.53C421.33,147.3,455.71,109.69,449.49,107.64z"/>
	<path d="M385.12,43.23"/>
	<g>
		<circle class="st3" cx="429.12" cy="76.74" r="5.86"/>
		<circle cx="429.26" cy="75.89" r="3.72"/>
		<circle class="st3" cx="427.93" cy="77.2" r="1.13"/>
	</g>
	<g>
		<circle class="st3" cx="426.8" cy="93.6" r="5.86"/>
		<circle cx="426.93" cy="92.76" r="3.72"/>
		<circle class="st3" cx="425.6" cy="94.06" r="1.13"/>
	</g>
	<path class="st1" d="M388.79,112.42c-3.64-2.51-25.92-16.35-28.96-10.44c-6,11.69-0.76,21.78,14.47,21.57
		C389.53,123.34,392.55,115.01,388.79,112.42z"/>
	<g>
		<path class="st1" d="M416.5,133.13c-0.19,0-0.38-0.05-0.55-0.17c-23.02-15.25-24-41.39-17.24-60.77c0.18-0.52,0.76-0.8,1.27-0.62
			c0.52,0.18,0.8,0.75,0.62,1.27c-6.51,18.67-5.61,43.83,16.46,58.45c0.46,0.3,0.59,0.93,0.28,1.39
			C417.15,132.97,416.83,133.13,416.5,133.13z"/>
	</g>
	<g>
		<path class="st1" d="M96.5,109.47c-0.16-0.53-0.71-0.83-1.25-0.67c-11.66,3.5-23.47,6.96-35.22,10.32
			c0.31,0.61,0.63,1.22,0.95,1.81c11.63-3.32,23.31-6.74,34.84-10.21C96.35,110.55,96.65,110,96.5,109.47z"/>
		<path class="st1" d="M88.04,103.42c0.55-0.03,0.97-0.51,0.94-1.06c-0.03-0.55-0.52-0.98-1.06-0.94c-6.44,0.4-12.92,1.41-19.2,2.4
			c-4.55,0.71-9.17,1.44-13.81,1.93c0.17,0.64,0.35,1.29,0.55,1.95c4.57-0.49,9.1-1.2,13.57-1.9
			C75.26,104.82,81.7,103.81,88.04,103.42z"/>
		<path class="st1" d="M95.16,85.63c0.15,0.08,0.31,0.12,0.48,0.12c0.36,0,0.7-0.19,0.88-0.52c0.26-0.49,0.08-1.09-0.4-1.36
			c-9.79-5.31-20.79-7.94-31.42-10.48c-1.12-0.27-2.25-0.54-3.38-0.81c-0.33,0.59-0.66,1.2-0.97,1.82c1.3,0.32,2.6,0.63,3.89,0.94
			C74.73,77.85,85.59,80.45,95.16,85.63z"/>
		<path class="st1" d="M86.65,92.93c0.44,0,0.84-0.29,0.96-0.74c0.15-0.53-0.17-1.08-0.7-1.23c-10.18-2.78-20.55-4.68-31.02-5.72
			c-0.21,0.66-0.42,1.31-0.61,1.95c10.49,1.01,20.9,2.91,31.1,5.7C86.47,92.92,86.56,92.93,86.65,92.93z"/>
	</g>
</g>
</svg>
